<svg xmlns="http://www.w3.org/2000/svg" xmlns:xlink="http://www.w3.org/1999/xlink" width="1900" zoomAndPan="magnify" viewBox="0 0 1425 899.99999" height="1200" preserveAspectRatio="xMidYMid meet" version="1.0"><defs><g/><clipPath id="88f594571a"><path d="M 0 0 L 1425 0 L 1425 900 L 0 900 Z M 0 0 " clip-rule="nonzero"/></clipPath><clipPath id="65ed242e14"><rect x="0" width="1425" y="0" height="900"/></clipPath><clipPath id="895cb9582f"><path d="M 712.5 654.503906 L 1039 654.503906 L 1039 721.714844 L 712.5 721.714844 Z M 712.5 654.503906 " clip-rule="nonzero"/></clipPath><clipPath id="d6f1270d87"><path d="M 746.105469 654.503906 L 1005.375 654.503906 C 1023.9375 654.503906 1038.980469 669.550781 1038.980469 688.109375 C 1038.980469 706.667969 1023.9375 721.714844 1005.375 721.714844 L 746.105469 721.714844 C 727.546875 721.714844 712.5 706.667969 712.5 688.109375 C 712.5 669.550781 727.546875 654.503906 746.105469 654.503906 Z M 746.105469 654.503906 " clip-rule="nonzero"/></clipPath><clipPath id="4ceccdef1b"><path d="M 0.5 0.503906 L 327 0.503906 L 327 67.714844 L 0.5 67.714844 Z M 0.5 0.503906 " clip-rule="nonzero"/></clipPath><clipPath id="881f4907e6"><path d="M 34.105469 0.503906 L 293.375 0.503906 C 311.9375 0.503906 326.980469 15.550781 326.980469 34.109375 C 326.980469 52.667969 311.9375 67.714844 293.375 67.714844 L 34.105469 67.714844 C 15.546875 67.714844 0.5 52.667969 0.5 34.109375 C 0.5 15.550781 15.546875 0.503906 34.105469 0.503906 Z M 34.105469 0.503906 " clip-rule="nonzero"/></clipPath><clipPath id="f85f082d89"><rect x="0" width="327" y="0" height="68"/></clipPath><clipPath id="8b1d9b5c94"><path d="M 1080.363281 654.503906 L 1406.960938 654.503906 L 1406.960938 721.714844 L 1080.363281 721.714844 Z M 1080.363281 654.503906 " clip-rule="nonzero"/></clipPath><clipPath id="c2cff59c56"><path d="M 1113.96875 654.503906 L 1373.242188 654.503906 C 1391.800781 654.503906 1406.84375 669.550781 1406.84375 688.109375 C 1406.84375 706.667969 1391.800781 721.714844 1373.242188 721.714844 L 1113.96875 721.714844 C 1095.410156 721.714844 1080.363281 706.667969 1080.363281 688.109375 C 1080.363281 669.550781 1095.410156 654.503906 1113.96875 654.503906 Z M 1113.96875 654.503906 " clip-rule="nonzero"/></clipPath><clipPath id="4ec89da42f"><path d="M 0.363281 0.503906 L 326.878906 0.503906 L 326.878906 67.714844 L 0.363281 67.714844 Z M 0.363281 0.503906 " clip-rule="nonzero"/></clipPath><clipPath id="9519f8bb4d"><path d="M 33.96875 0.503906 L 293.242188 0.503906 C 311.800781 0.503906 326.84375 15.550781 326.84375 34.109375 C 326.84375 52.667969 311.800781 67.714844 293.242188 67.714844 L 33.96875 67.714844 C 15.410156 67.714844 0.363281 52.667969 0.363281 34.109375 C 0.363281 15.550781 15.410156 0.503906 33.96875 0.503906 Z M 33.96875 0.503906 " clip-rule="nonzero"/></clipPath><clipPath id="54ab67dce1"><rect x="0" width="327" y="0" height="68"/></clipPath><clipPath id="e96d662609"><path d="M 416.007812 632.542969 L 1425 632.542969 L 1425 757.378906 L 416.007812 757.378906 Z M 416.007812 632.542969 " clip-rule="nonzero"/></clipPath><clipPath id="c2f464f5db"><path d="M 0.0078125 0.542969 L 1009 0.542969 L 1009 125.378906 L 0.0078125 125.378906 Z M 0.0078125 0.542969 " clip-rule="nonzero"/></clipPath><clipPath id="cc48f07c72"><rect x="0" width="1009" y="0" height="126"/></clipPath><clipPath id="0902f4c4c2"><path d="M 32.621094 153.640625 L 647.25 153.640625 L 647.25 768.265625 L 32.621094 768.265625 Z M 32.621094 153.640625 " clip-rule="nonzero"/></clipPath><clipPath id="adcd3c2fac"><path d="M 339.9375 153.640625 C 170.210938 153.640625 32.621094 291.230469 32.621094 460.953125 C 32.621094 630.679688 170.210938 768.265625 339.9375 768.265625 C 509.660156 768.265625 647.25 630.679688 647.25 460.953125 C 647.25 291.230469 509.660156 153.640625 339.9375 153.640625 Z M 339.9375 153.640625 " clip-rule="nonzero"/></clipPath><clipPath id="01f3d29bb3"><path d="M 0.621094 0.640625 L 615.25 0.640625 L 615.25 615.265625 L 0.621094 615.265625 Z M 0.621094 0.640625 " clip-rule="nonzero"/></clipPath><clipPath id="2121542867"><path d="M 307.9375 0.640625 C 138.210938 0.640625 0.621094 138.230469 0.621094 307.953125 C 0.621094 477.679688 138.210938 615.265625 307.9375 615.265625 C 477.660156 615.265625 615.25 477.679688 615.25 307.953125 C 615.25 138.230469 477.660156 0.640625 307.9375 0.640625 Z M 307.9375 0.640625 " clip-rule="nonzero"/></clipPath><clipPath id="7196b314d0"><rect x="0" width="616" y="0" height="616"/></clipPath><clipPath id="1167e6bc4f"><path d="M 745.472656 652.921875 L 1015.660156 652.921875 L 1015.660156 740.699219 L 745.472656 740.699219 Z M 745.472656 652.921875 " clip-rule="nonzero"/></clipPath><clipPath id="862a3ac5ee"><path d="M 785.222656 652.921875 L 975.722656 652.921875 C 986.265625 652.921875 996.375 657.109375 1003.828125 664.566406 C 1011.285156 672.019531 1015.472656 682.128906 1015.472656 692.671875 L 1015.472656 700.949219 C 1015.472656 711.492188 1011.285156 721.601562 1003.828125 729.058594 C 996.375 736.511719 986.265625 740.699219 975.722656 740.699219 L 785.222656 740.699219 C 774.679688 740.699219 764.570312 736.511719 757.113281 729.058594 C 749.660156 721.601562 745.472656 711.492188 745.472656 700.949219 L 745.472656 692.671875 C 745.472656 682.128906 749.660156 672.019531 757.113281 664.566406 C 764.570312 657.109375 774.679688 652.921875 785.222656 652.921875 Z M 785.222656 652.921875 " clip-rule="nonzero"/></clipPath><clipPath id="627bdfc41f"><path d="M 0.472656 0.921875 L 270.660156 0.921875 L 270.660156 88.699219 L 0.472656 88.699219 Z M 0.472656 0.921875 " clip-rule="nonzero"/></clipPath><clipPath id="62a48d74a6"><path d="M 40.222656 0.921875 L 230.722656 0.921875 C 241.265625 0.921875 251.375 5.109375 258.828125 12.566406 C 266.285156 20.019531 270.472656 30.128906 270.472656 40.671875 L 270.472656 48.949219 C 270.472656 59.492188 266.285156 69.601562 258.828125 77.058594 C 251.375 84.511719 241.265625 88.699219 230.722656 88.699219 L 40.222656 88.699219 C 29.679688 88.699219 19.570312 84.511719 12.113281 77.058594 C 4.660156 69.601562 0.472656 59.492188 0.472656 48.949219 L 0.472656 40.671875 C 0.472656 30.128906 4.660156 20.019531 12.113281 12.566406 C 19.570312 5.109375 29.679688 0.921875 40.222656 0.921875 Z M 40.222656 0.921875 " clip-rule="nonzero"/></clipPath><clipPath id="d96bb76780"><rect x="0" width="271" y="0" height="89"/></clipPath><clipPath id="6470b391a6"><rect x="0" width="195" y="0" height="35"/></clipPath><clipPath id="9763ed5467"><path d="M 1104.230469 649.222656 L 1374.417969 649.222656 L 1374.417969 737 L 1104.230469 737 Z M 1104.230469 649.222656 " clip-rule="nonzero"/></clipPath><clipPath id="f2f41bdc8f"><path d="M 1143.980469 649.222656 L 1334.480469 649.222656 C 1345.023438 649.222656 1355.132812 653.410156 1362.589844 660.863281 C 1370.042969 668.320312 1374.230469 678.429688 1374.230469 688.972656 L 1374.230469 697.25 C 1374.230469 707.792969 1370.042969 717.902344 1362.589844 725.355469 C 1355.132812 732.8125 1345.023438 737 1334.480469 737 L 1143.980469 737 C 1133.4375 737 1123.328125 732.8125 1115.875 725.355469 C 1108.417969 717.902344 1104.230469 707.792969 1104.230469 697.25 L 1104.230469 688.972656 C 1104.230469 678.429688 1108.417969 668.320312 1115.875 660.863281 C 1123.328125 653.410156 1133.4375 649.222656 1143.980469 649.222656 Z M 1143.980469 649.222656 " clip-rule="nonzero"/></clipPath><clipPath id="0ace44dbc8"><path d="M 0.230469 0.222656 L 270.238281 0.222656 L 270.238281 88 L 0.230469 88 Z M 0.230469 0.222656 " clip-rule="nonzero"/></clipPath><clipPath id="459264847f"><path d="M 39.980469 0.222656 L 230.480469 0.222656 C 241.023438 0.222656 251.132812 4.410156 258.589844 11.863281 C 266.042969 19.320312 270.230469 29.429688 270.230469 39.972656 L 270.230469 48.25 C 270.230469 58.792969 266.042969 68.902344 258.589844 76.355469 C 251.132812 83.8125 241.023438 88 230.480469 88 L 39.980469 88 C 29.4375 88 19.328125 83.8125 11.875 76.355469 C 4.417969 68.902344 0.230469 58.792969 0.230469 48.25 L 0.230469 39.972656 C 0.230469 29.429688 4.417969 19.320312 11.875 11.863281 C 19.328125 4.410156 29.4375 0.222656 39.980469 0.222656 Z M 39.980469 0.222656 " clip-rule="nonzero"/></clipPath><clipPath id="40392a4425"><rect x="0" width="271" y="0" height="88"/></clipPath><clipPath id="c73f8f6048"><rect x="0" width="165" y="0" height="35"/></clipPath></defs><rect x="-142.5" width="1710" fill="#ffffff" y="-89.999999" height="1079.999988" fill-opacity="1"/><rect x="-142.5" width="1710" fill="#ffffff" y="-89.999999" height="1079.999988" fill-opacity="1"/><g transform="matrix(1, 0, 0, 1, 0, 0.000000000000108392)"><g clip-path="url(#65ed242e14)"><g clip-path="url(#88f594571a)"><rect x="-313.5" width="2052" fill="#000000" height="1295.999986" y="-197.999998" fill-opacity="1"/></g></g></g><g clip-path="url(#895cb9582f)"><g clip-path="url(#d6f1270d87)"><g transform="matrix(1, 0, 0, 1, 712, 654)"><g clip-path="url(#f85f082d89)"><g clip-path="url(#4ceccdef1b)"><g clip-path="url(#881f4907e6)"><path fill="#1f8f3a" d="M 0.5 0.503906 L 327.097656 0.503906 L 327.097656 67.714844 L 0.5 67.714844 Z M 0.5 0.503906 " fill-opacity="1" fill-rule="nonzero"/></g></g></g></g></g></g><g clip-path="url(#8b1d9b5c94)"><g clip-path="url(#c2cff59c56)"><g transform="matrix(1, 0, 0, 1, 1080, 654)"><g clip-path="url(#54ab67dce1)"><g clip-path="url(#4ec89da42f)"><g clip-path="url(#9519f8bb4d)"><path fill="#1f8f3a" d="M 0.363281 0.503906 L 326.960938 0.503906 L 326.960938 67.714844 L 0.363281 67.714844 Z M 0.363281 0.503906 " fill-opacity="1" fill-rule="nonzero"/></g></g></g></g></g></g><g clip-path="url(#e96d662609)"><g transform="matrix(1, 0, 0, 1, 416, 632)"><g clip-path="url(#cc48f07c72)"><g clip-path="url(#c2f464f5db)"><path fill="#1f8f3a" d="M 0.0078125 0.542969 L 1048.449219 0.542969 L 1048.449219 125.378906 L 0.0078125 125.378906 Z M 0.0078125 0.542969 " fill-opacity="1" fill-rule="nonzero"/></g></g></g></g><g clip-path="url(#0902f4c4c2)"><g clip-path="url(#adcd3c2fac)"><g transform="matrix(1, 0, 0, 1, 32, 153)"><g clip-path="url(#7196b314d0)"><g clip-path="url(#01f3d29bb3)"><g clip-path="url(#2121542867)"><path fill="#ffffff" d="M 0.621094 0.640625 L 615.25 0.640625 L 615.25 615.265625 L 0.621094 615.265625 Z M 0.621094 0.640625 " fill-opacity="1" fill-rule="nonzero"/></g></g></g></g></g></g><g clip-path="url(#1167e6bc4f)"><g clip-path="url(#862a3ac5ee)"><g transform="matrix(1, 0, 0, 1, 745, 652)"><g clip-path="url(#d96bb76780)"><g clip-path="url(#627bdfc41f)"><g clip-path="url(#62a48d74a6)"><path fill="#000000" d="M 0.472656 0.921875 L 270.316406 0.921875 L 270.316406 88.699219 L 0.472656 88.699219 Z M 0.472656 0.921875 " fill-opacity="1" fill-rule="nonzero"/></g></g></g></g></g></g><g transform="matrix(1, 0, 0, 1, 780, 675)"><g clip-path="url(#6470b391a6)"><g fill="#ffffff" fill-opacity="1"><g transform="translate(0.46649, 28.476378)"><g><path d="M 7.4375 0.21875 C 6.132812 0.21875 4.992188 -0.0078125 4.015625 -0.46875 C 3.035156 -0.925781 2.273438 -1.570312 1.734375 -2.40625 C 1.203125 -3.25 0.9375 -4.21875 0.9375 -5.3125 L 0.9375 -6.0625 C 0.9375 -6.15625 0.96875 -6.234375 1.03125 -6.296875 C 1.09375 -6.359375 1.171875 -6.390625 1.265625 -6.390625 L 4.53125 -6.390625 C 4.625 -6.390625 4.703125 -6.359375 4.765625 -6.296875 C 4.828125 -6.234375 4.859375 -6.15625 4.859375 -6.0625 L 4.859375 -5.515625 C 4.859375 -4.859375 5.101562 -4.304688 5.59375 -3.859375 C 6.09375 -3.421875 6.753906 -3.203125 7.578125 -3.203125 C 8.316406 -3.203125 8.878906 -3.390625 9.265625 -3.765625 C 9.648438 -4.140625 9.84375 -4.617188 9.84375 -5.203125 C 9.84375 -5.640625 9.71875 -6.015625 9.46875 -6.328125 C 9.226562 -6.640625 8.882812 -6.929688 8.4375 -7.203125 C 8 -7.472656 7.316406 -7.84375 6.390625 -8.3125 C 5.265625 -8.882812 4.34375 -9.414062 3.625 -9.90625 C 2.90625 -10.394531 2.289062 -11.023438 1.78125 -11.796875 C 1.269531 -12.566406 1.015625 -13.5 1.015625 -14.59375 C 1.015625 -15.695312 1.273438 -16.65625 1.796875 -17.46875 C 2.316406 -18.289062 3.046875 -18.921875 3.984375 -19.359375 C 4.929688 -19.804688 6.007812 -20.03125 7.21875 -20.03125 C 8.476562 -20.03125 9.597656 -19.789062 10.578125 -19.3125 C 11.554688 -18.832031 12.320312 -18.15625 12.875 -17.28125 C 13.425781 -16.414062 13.703125 -15.421875 13.703125 -14.296875 L 13.703125 -13.71875 C 13.703125 -13.625 13.664062 -13.546875 13.59375 -13.484375 C 13.53125 -13.421875 13.453125 -13.390625 13.359375 -13.390625 L 10.109375 -13.390625 C 10.003906 -13.390625 9.921875 -13.421875 9.859375 -13.484375 C 9.796875 -13.546875 9.765625 -13.625 9.765625 -13.71875 L 9.765625 -14.234375 C 9.765625 -14.910156 9.523438 -15.472656 9.046875 -15.921875 C 8.578125 -16.378906 7.9375 -16.609375 7.125 -16.609375 C 6.445312 -16.609375 5.914062 -16.429688 5.53125 -16.078125 C 5.144531 -15.734375 4.953125 -15.25 4.953125 -14.625 C 4.953125 -14.195312 5.0625 -13.820312 5.28125 -13.5 C 5.507812 -13.175781 5.859375 -12.867188 6.328125 -12.578125 C 6.804688 -12.285156 7.523438 -11.90625 8.484375 -11.4375 L 9.078125 -11.09375 C 10.171875 -10.488281 11.023438 -9.960938 11.640625 -9.515625 C 12.253906 -9.078125 12.769531 -8.515625 13.1875 -7.828125 C 13.601562 -7.148438 13.8125 -6.332031 13.8125 -5.375 C 13.8125 -3.65625 13.226562 -2.289062 12.0625 -1.28125 C 10.90625 -0.28125 9.363281 0.21875 7.4375 0.21875 Z M 7.4375 0.21875 "/></g></g></g><g fill="#ffffff" fill-opacity="1"><g transform="translate(15.174952, 28.476378)"><g><path d="M 6.8125 -14.765625 C 7.945312 -14.765625 8.957031 -14.5625 9.84375 -14.15625 C 10.726562 -13.75 11.421875 -13.179688 11.921875 -12.453125 C 12.421875 -11.734375 12.671875 -10.910156 12.671875 -9.984375 L 12.671875 -0.34375 C 12.671875 -0.25 12.640625 -0.164062 12.578125 -0.09375 C 12.515625 -0.03125 12.4375 0 12.34375 0 L 9.03125 0 C 8.9375 0 8.851562 -0.03125 8.78125 -0.09375 C 8.71875 -0.164062 8.6875 -0.25 8.6875 -0.34375 L 8.6875 -1.125 C 8.6875 -1.1875 8.664062 -1.222656 8.625 -1.234375 C 8.59375 -1.253906 8.554688 -1.238281 8.515625 -1.1875 C 7.796875 -0.25 6.679688 0.21875 5.171875 0.21875 C 3.890625 0.21875 2.816406 -0.109375 1.953125 -0.765625 C 1.097656 -1.421875 0.671875 -2.523438 0.671875 -4.078125 C 0.671875 -7.148438 2.597656 -8.6875 6.453125 -8.6875 L 8.546875 -8.6875 C 8.640625 -8.6875 8.6875 -8.734375 8.6875 -8.828125 L 8.6875 -9.484375 C 8.6875 -10.046875 8.519531 -10.492188 8.1875 -10.828125 C 7.863281 -11.171875 7.414062 -11.34375 6.84375 -11.34375 C 6.394531 -11.34375 6.019531 -11.238281 5.71875 -11.03125 C 5.414062 -10.820312 5.226562 -10.539062 5.15625 -10.1875 C 5.09375 -10 4.957031 -9.90625 4.75 -9.90625 L 1.328125 -10.109375 C 1.234375 -10.109375 1.148438 -10.132812 1.078125 -10.1875 C 1.015625 -10.238281 0.992188 -10.3125 1.015625 -10.40625 C 1.128906 -11.707031 1.71875 -12.757812 2.78125 -13.5625 C 3.851562 -14.363281 5.195312 -14.765625 6.8125 -14.765625 Z M 6.359375 -2.796875 C 7.003906 -2.796875 7.550781 -2.972656 8 -3.328125 C 8.457031 -3.691406 8.6875 -4.164062 8.6875 -4.75 L 8.6875 -5.9375 C 8.6875 -6.03125 8.640625 -6.078125 8.546875 -6.078125 L 6.96875 -6.078125 C 6.257812 -6.078125 5.707031 -5.925781 5.3125 -5.625 C 4.914062 -5.320312 4.71875 -4.890625 4.71875 -4.328125 C 4.71875 -3.835938 4.867188 -3.457031 5.171875 -3.1875 C 5.472656 -2.925781 5.867188 -2.796875 6.359375 -2.796875 Z M 6.359375 -2.796875 "/></g></g></g><g fill="#ffffff" fill-opacity="1"><g transform="translate(28.949991, 28.476378)"><g><path d="M 4.921875 0 C 4.710938 0 4.582031 -0.09375 4.53125 -0.28125 L 0.5625 -14.203125 L 0.53125 -14.3125 C 0.53125 -14.488281 0.632812 -14.578125 0.84375 -14.578125 L 4.46875 -14.578125 C 4.675781 -14.578125 4.800781 -14.472656 4.84375 -14.265625 L 6.671875 -5.796875 C 6.691406 -5.722656 6.71875 -5.6875 6.75 -5.6875 C 6.789062 -5.6875 6.820312 -5.722656 6.84375 -5.796875 L 8.65625 -14.265625 C 8.695312 -14.472656 8.820312 -14.578125 9.03125 -14.578125 L 12.65625 -14.515625 C 12.894531 -14.515625 12.988281 -14.394531 12.9375 -14.15625 L 9.03125 -0.28125 C 8.96875 -0.09375 8.832031 0 8.625 0 Z M 4.921875 0 "/></g></g></g><g fill="#ffffff" fill-opacity="1"><g transform="translate(42.470459, 28.476378)"><g><path d="M 12.953125 -9.484375 C 13.015625 -8.859375 13.046875 -8.164062 13.046875 -7.40625 L 13.015625 -6.3125 C 13.015625 -6.082031 12.898438 -5.96875 12.671875 -5.96875 L 5.171875 -5.96875 C 5.078125 -5.96875 5.03125 -5.921875 5.03125 -5.828125 C 5.070312 -5.390625 5.113281 -5.066406 5.15625 -4.859375 C 5.25 -4.335938 5.476562 -3.925781 5.84375 -3.625 C 6.207031 -3.320312 6.664062 -3.171875 7.21875 -3.171875 C 8.144531 -3.191406 8.785156 -3.613281 9.140625 -4.4375 C 9.234375 -4.625 9.375 -4.703125 9.5625 -4.671875 L 12.5625 -4.078125 C 12.789062 -4.015625 12.867188 -3.875 12.796875 -3.65625 C 12.378906 -2.40625 11.691406 -1.445312 10.734375 -0.78125 C 9.785156 -0.113281 8.613281 0.21875 7.21875 0.21875 C 5.539062 0.21875 4.203125 -0.160156 3.203125 -0.921875 C 2.210938 -1.679688 1.566406 -2.78125 1.265625 -4.21875 C 1.097656 -4.988281 1.015625 -6.164062 1.015625 -7.75 C 1.015625 -8.65625 1.070312 -9.421875 1.1875 -10.046875 C 1.394531 -11.484375 2.015625 -12.628906 3.046875 -13.484375 C 4.085938 -14.335938 5.398438 -14.765625 6.984375 -14.765625 C 8.703125 -14.765625 10.097656 -14.28125 11.171875 -13.3125 C 12.253906 -12.34375 12.847656 -11.066406 12.953125 -9.484375 Z M 7.015625 -11.34375 C 6.503906 -11.34375 6.082031 -11.191406 5.75 -10.890625 C 5.425781 -10.585938 5.21875 -10.175781 5.125 -9.65625 C 5.0625 -9.3125 5.03125 -8.953125 5.03125 -8.578125 C 5.03125 -8.484375 5.078125 -8.4375 5.171875 -8.4375 L 8.859375 -8.4375 C 8.953125 -8.4375 9 -8.484375 9 -8.578125 C 9 -8.953125 8.96875 -9.3125 8.90625 -9.65625 C 8.832031 -10.15625 8.625 -10.5625 8.28125 -10.875 C 7.945312 -11.1875 7.523438 -11.34375 7.015625 -11.34375 Z M 7.015625 -11.34375 "/></g></g></g><g fill="#ffffff" fill-opacity="1"><g transform="translate(56.386928, 28.476378)"><g/></g></g><g fill="#ffffff" fill-opacity="1"><g transform="translate(62.04403, 28.476378)"><g><path d="M 8.765625 -11.890625 C 8.765625 -11.796875 8.734375 -11.710938 8.671875 -11.640625 C 8.609375 -11.578125 8.53125 -11.546875 8.4375 -11.546875 L 6.25 -11.546875 C 6.15625 -11.546875 6.109375 -11.5 6.109375 -11.40625 L 6.109375 -5.03125 C 6.109375 -4.445312 6.222656 -4.023438 6.453125 -3.765625 C 6.691406 -3.515625 7.0625 -3.398438 7.5625 -3.421875 L 8.125 -3.421875 C 8.21875 -3.421875 8.296875 -3.382812 8.359375 -3.3125 C 8.421875 -3.25 8.453125 -3.171875 8.453125 -3.078125 L 8.453125 -0.34375 C 8.453125 -0.113281 8.34375 0 8.125 0 C 7.800781 0.0195312 7.328125 0.03125 6.703125 0.03125 C 5.210938 0.03125 4.101562 -0.210938 3.375 -0.703125 C 2.65625 -1.191406 2.296875 -2.117188 2.296875 -3.484375 L 2.296875 -11.40625 C 2.296875 -11.5 2.25 -11.546875 2.15625 -11.546875 L 0.84375 -11.546875 C 0.75 -11.546875 0.671875 -11.578125 0.609375 -11.640625 C 0.546875 -11.710938 0.515625 -11.796875 0.515625 -11.890625 L 0.515625 -14.203125 C 0.515625 -14.296875 0.546875 -14.375 0.609375 -14.4375 C 0.671875 -14.507812 0.75 -14.546875 0.84375 -14.546875 L 2.15625 -14.546875 C 2.25 -14.546875 2.296875 -14.59375 2.296875 -14.6875 L 2.296875 -17.9375 C 2.296875 -18.03125 2.328125 -18.109375 2.390625 -18.171875 C 2.453125 -18.242188 2.53125 -18.28125 2.625 -18.28125 L 5.765625 -18.28125 C 5.859375 -18.28125 5.9375 -18.242188 6 -18.171875 C 6.070312 -18.109375 6.109375 -18.03125 6.109375 -17.9375 L 6.109375 -14.6875 C 6.109375 -14.59375 6.15625 -14.546875 6.25 -14.546875 L 8.4375 -14.546875 C 8.53125 -14.546875 8.609375 -14.507812 8.671875 -14.4375 C 8.734375 -14.375 8.765625 -14.296875 8.765625 -14.203125 Z M 8.765625 -11.890625 "/></g></g></g><g fill="#ffffff" fill-opacity="1"><g transform="translate(71.519677, 28.476378)"><g><path d="M 7.125 0.21875 C 5.488281 0.21875 4.144531 -0.1875 3.09375 -1 C 2.050781 -1.820312 1.425781 -2.953125 1.21875 -4.390625 C 1.0625 -5.253906 0.984375 -6.222656 0.984375 -7.296875 C 0.984375 -8.390625 1.0625 -9.363281 1.21875 -10.21875 C 1.425781 -11.613281 2.050781 -12.71875 3.09375 -13.53125 C 4.144531 -14.351562 5.488281 -14.765625 7.125 -14.765625 C 8.75 -14.765625 10.078125 -14.351562 11.109375 -13.53125 C 12.140625 -12.71875 12.765625 -11.613281 12.984375 -10.21875 C 13.140625 -9.363281 13.21875 -8.390625 13.21875 -7.296875 C 13.21875 -6.242188 13.140625 -5.285156 12.984375 -4.421875 C 12.773438 -2.960938 12.15625 -1.820312 11.125 -1 C 10.101562 -0.1875 8.769531 0.21875 7.125 0.21875 Z M 7.125 -3.203125 C 7.613281 -3.203125 8.03125 -3.359375 8.375 -3.671875 C 8.726562 -3.992188 8.960938 -4.429688 9.078125 -4.984375 C 9.171875 -5.773438 9.21875 -6.546875 9.21875 -7.296875 C 9.21875 -8.066406 9.171875 -8.832031 9.078125 -9.59375 C 8.984375 -10.132812 8.757812 -10.5625 8.40625 -10.875 C 8.0625 -11.1875 7.628906 -11.34375 7.109375 -11.34375 C 6.597656 -11.34375 6.164062 -11.1875 5.8125 -10.875 C 5.46875 -10.5625 5.25 -10.132812 5.15625 -9.59375 C 5.0625 -9.03125 5.015625 -8.265625 5.015625 -7.296875 C 5.015625 -6.359375 5.050781 -5.585938 5.125 -4.984375 C 5.238281 -4.429688 5.472656 -3.992188 5.828125 -3.671875 C 6.179688 -3.359375 6.613281 -3.203125 7.125 -3.203125 Z M 7.125 -3.203125 "/></g></g></g><g fill="#ffffff" fill-opacity="1"><g transform="translate(85.747279, 28.476378)"><g/></g></g><g fill="#ffffff" fill-opacity="1"><g transform="translate(91.404382, 28.476378)"><g><path d="M 7.640625 0.21875 C 6.359375 0.21875 5.222656 -0.03125 4.234375 -0.53125 C 3.253906 -1.039062 2.492188 -1.765625 1.953125 -2.703125 C 1.421875 -3.648438 1.15625 -4.75 1.15625 -6 L 1.15625 -13.859375 C 1.15625 -15.085938 1.421875 -16.164062 1.953125 -17.09375 C 2.492188 -18.03125 3.253906 -18.753906 4.234375 -19.265625 C 5.222656 -19.773438 6.359375 -20.03125 7.640625 -20.03125 C 8.921875 -20.03125 10.050781 -19.78125 11.03125 -19.28125 C 12.007812 -18.78125 12.769531 -18.078125 13.3125 -17.171875 C 13.851562 -16.265625 14.125 -15.207031 14.125 -14 L 14.125 -13.859375 C 14.125 -13.765625 14.085938 -13.679688 14.015625 -13.609375 C 13.953125 -13.535156 13.875 -13.5 13.78125 -13.5 L 10.46875 -13.359375 C 10.238281 -13.359375 10.125 -13.460938 10.125 -13.671875 L 10.125 -14.03125 C 10.125 -14.8125 9.894531 -15.4375 9.4375 -15.90625 C 8.988281 -16.375 8.390625 -16.609375 7.640625 -16.609375 C 6.890625 -16.609375 6.285156 -16.375 5.828125 -15.90625 C 5.378906 -15.4375 5.15625 -14.8125 5.15625 -14.03125 L 5.15625 -5.75 C 5.15625 -4.96875 5.378906 -4.347656 5.828125 -3.890625 C 6.285156 -3.429688 6.890625 -3.203125 7.640625 -3.203125 C 8.390625 -3.203125 8.988281 -3.429688 9.4375 -3.890625 C 9.894531 -4.347656 10.125 -4.96875 10.125 -5.75 L 10.125 -6.109375 C 10.125 -6.316406 10.238281 -6.421875 10.46875 -6.421875 L 13.78125 -6.28125 C 13.875 -6.28125 13.953125 -6.242188 14.015625 -6.171875 C 14.085938 -6.109375 14.125 -6.03125 14.125 -5.9375 L 14.125 -5.859375 C 14.125 -4.648438 13.851562 -3.582031 13.3125 -2.65625 C 12.769531 -1.726562 12.007812 -1.015625 11.03125 -0.515625 C 10.050781 -0.0234375 8.921875 0.21875 7.640625 0.21875 Z M 7.640625 0.21875 "/></g></g></g><g fill="#ffffff" fill-opacity="1"><g transform="translate(106.565406, 28.476378)"><g><path d="M 7.125 0.21875 C 5.488281 0.21875 4.144531 -0.1875 3.09375 -1 C 2.050781 -1.820312 1.425781 -2.953125 1.21875 -4.390625 C 1.0625 -5.253906 0.984375 -6.222656 0.984375 -7.296875 C 0.984375 -8.390625 1.0625 -9.363281 1.21875 -10.21875 C 1.425781 -11.613281 2.050781 -12.71875 3.09375 -13.53125 C 4.144531 -14.351562 5.488281 -14.765625 7.125 -14.765625 C 8.75 -14.765625 10.078125 -14.351562 11.109375 -13.53125 C 12.140625 -12.71875 12.765625 -11.613281 12.984375 -10.21875 C 13.140625 -9.363281 13.21875 -8.390625 13.21875 -7.296875 C 13.21875 -6.242188 13.140625 -5.285156 12.984375 -4.421875 C 12.773438 -2.960938 12.15625 -1.820312 11.125 -1 C 10.101562 -0.1875 8.769531 0.21875 7.125 0.21875 Z M 7.125 -3.203125 C 7.613281 -3.203125 8.03125 -3.359375 8.375 -3.671875 C 8.726562 -3.992188 8.960938 -4.429688 9.078125 -4.984375 C 9.171875 -5.773438 9.21875 -6.546875 9.21875 -7.296875 C 9.21875 -8.066406 9.171875 -8.832031 9.078125 -9.59375 C 8.984375 -10.132812 8.757812 -10.5625 8.40625 -10.875 C 8.0625 -11.1875 7.628906 -11.34375 7.109375 -11.34375 C 6.597656 -11.34375 6.164062 -11.1875 5.8125 -10.875 C 5.46875 -10.5625 5.25 -10.132812 5.15625 -9.59375 C 5.0625 -9.03125 5.015625 -8.265625 5.015625 -7.296875 C 5.015625 -6.359375 5.050781 -5.585938 5.125 -4.984375 C 5.238281 -4.429688 5.472656 -3.992188 5.828125 -3.671875 C 6.179688 -3.359375 6.613281 -3.203125 7.125 -3.203125 Z M 7.125 -3.203125 "/></g></g></g><g fill="#ffffff" fill-opacity="1"><g transform="translate(120.793009, 28.476378)"><g><path d="M 8.453125 -14.765625 C 9.835938 -14.765625 10.921875 -14.328125 11.703125 -13.453125 C 12.484375 -12.578125 12.875 -11.359375 12.875 -9.796875 L 12.875 -0.34375 C 12.875 -0.25 12.835938 -0.164062 12.765625 -0.09375 C 12.703125 -0.03125 12.625 0 12.53125 0 L 9.21875 0 C 9.125 0 9.046875 -0.03125 8.984375 -0.09375 C 8.921875 -0.164062 8.890625 -0.25 8.890625 -0.34375 L 8.890625 -9.21875 C 8.890625 -9.882812 8.726562 -10.40625 8.40625 -10.78125 C 8.082031 -11.15625 7.648438 -11.34375 7.109375 -11.34375 C 6.535156 -11.34375 6.082031 -11.148438 5.75 -10.765625 C 5.425781 -10.378906 5.265625 -9.859375 5.265625 -9.203125 L 5.265625 -0.34375 C 5.265625 -0.25 5.226562 -0.164062 5.15625 -0.09375 C 5.09375 -0.03125 5.015625 0 4.921875 0 L 1.609375 0 C 1.515625 0 1.429688 -0.03125 1.359375 -0.09375 C 1.296875 -0.164062 1.265625 -0.25 1.265625 -0.34375 L 1.265625 -14.203125 C 1.265625 -14.296875 1.296875 -14.375 1.359375 -14.4375 C 1.429688 -14.507812 1.515625 -14.546875 1.609375 -14.546875 L 4.921875 -14.546875 C 5.015625 -14.546875 5.09375 -14.507812 5.15625 -14.4375 C 5.226562 -14.375 5.265625 -14.296875 5.265625 -14.203125 L 5.265625 -13.40625 C 5.265625 -13.351562 5.28125 -13.320312 5.3125 -13.3125 C 5.351562 -13.300781 5.40625 -13.332031 5.46875 -13.40625 C 6.144531 -14.3125 7.140625 -14.765625 8.453125 -14.765625 Z M 8.453125 -14.765625 "/></g></g></g><g fill="#ffffff" fill-opacity="1"><g transform="translate(134.850896, 28.476378)"><g><path d="M 8.765625 -11.890625 C 8.765625 -11.796875 8.734375 -11.710938 8.671875 -11.640625 C 8.609375 -11.578125 8.53125 -11.546875 8.4375 -11.546875 L 6.25 -11.546875 C 6.15625 -11.546875 6.109375 -11.5 6.109375 -11.40625 L 6.109375 -5.03125 C 6.109375 -4.445312 6.222656 -4.023438 6.453125 -3.765625 C 6.691406 -3.515625 7.0625 -3.398438 7.5625 -3.421875 L 8.125 -3.421875 C 8.21875 -3.421875 8.296875 -3.382812 8.359375 -3.3125 C 8.421875 -3.25 8.453125 -3.171875 8.453125 -3.078125 L 8.453125 -0.34375 C 8.453125 -0.113281 8.34375 0 8.125 0 C 7.800781 0.0195312 7.328125 0.03125 6.703125 0.03125 C 5.210938 0.03125 4.101562 -0.210938 3.375 -0.703125 C 2.65625 -1.191406 2.296875 -2.117188 2.296875 -3.484375 L 2.296875 -11.40625 C 2.296875 -11.5 2.25 -11.546875 2.15625 -11.546875 L 0.84375 -11.546875 C 0.75 -11.546875 0.671875 -11.578125 0.609375 -11.640625 C 0.546875 -11.710938 0.515625 -11.796875 0.515625 -11.890625 L 0.515625 -14.203125 C 0.515625 -14.296875 0.546875 -14.375 0.609375 -14.4375 C 0.671875 -14.507812 0.75 -14.546875 0.84375 -14.546875 L 2.15625 -14.546875 C 2.25 -14.546875 2.296875 -14.59375 2.296875 -14.6875 L 2.296875 -17.9375 C 2.296875 -18.03125 2.328125 -18.109375 2.390625 -18.171875 C 2.453125 -18.242188 2.53125 -18.28125 2.625 -18.28125 L 5.765625 -18.28125 C 5.859375 -18.28125 5.9375 -18.242188 6 -18.171875 C 6.070312 -18.109375 6.109375 -18.03125 6.109375 -17.9375 L 6.109375 -14.6875 C 6.109375 -14.59375 6.15625 -14.546875 6.25 -14.546875 L 8.4375 -14.546875 C 8.53125 -14.546875 8.609375 -14.507812 8.671875 -14.4375 C 8.734375 -14.375 8.765625 -14.296875 8.765625 -14.203125 Z M 8.765625 -11.890625 "/></g></g></g><g fill="#ffffff" fill-opacity="1"><g transform="translate(144.326543, 28.476378)"><g><path d="M 6.8125 -14.765625 C 7.945312 -14.765625 8.957031 -14.5625 9.84375 -14.15625 C 10.726562 -13.75 11.421875 -13.179688 11.921875 -12.453125 C 12.421875 -11.734375 12.671875 -10.910156 12.671875 -9.984375 L 12.671875 -0.34375 C 12.671875 -0.25 12.640625 -0.164062 12.578125 -0.09375 C 12.515625 -0.03125 12.4375 0 12.34375 0 L 9.03125 0 C 8.9375 0 8.851562 -0.03125 8.78125 -0.09375 C 8.71875 -0.164062 8.6875 -0.25 8.6875 -0.34375 L 8.6875 -1.125 C 8.6875 -1.1875 8.664062 -1.222656 8.625 -1.234375 C 8.59375 -1.253906 8.554688 -1.238281 8.515625 -1.1875 C 7.796875 -0.25 6.679688 0.21875 5.171875 0.21875 C 3.890625 0.21875 2.816406 -0.109375 1.953125 -0.765625 C 1.097656 -1.421875 0.671875 -2.523438 0.671875 -4.078125 C 0.671875 -7.148438 2.597656 -8.6875 6.453125 -8.6875 L 8.546875 -8.6875 C 8.640625 -8.6875 8.6875 -8.734375 8.6875 -8.828125 L 8.6875 -9.484375 C 8.6875 -10.046875 8.519531 -10.492188 8.1875 -10.828125 C 7.863281 -11.171875 7.414062 -11.34375 6.84375 -11.34375 C 6.394531 -11.34375 6.019531 -11.238281 5.71875 -11.03125 C 5.414062 -10.820312 5.226562 -10.539062 5.15625 -10.1875 C 5.09375 -10 4.957031 -9.90625 4.75 -9.90625 L 1.328125 -10.109375 C 1.234375 -10.109375 1.148438 -10.132812 1.078125 -10.1875 C 1.015625 -10.238281 0.992188 -10.3125 1.015625 -10.40625 C 1.128906 -11.707031 1.71875 -12.757812 2.78125 -13.5625 C 3.851562 -14.363281 5.195312 -14.765625 6.8125 -14.765625 Z M 6.359375 -2.796875 C 7.003906 -2.796875 7.550781 -2.972656 8 -3.328125 C 8.457031 -3.691406 8.6875 -4.164062 8.6875 -4.75 L 8.6875 -5.9375 C 8.6875 -6.03125 8.640625 -6.078125 8.546875 -6.078125 L 6.96875 -6.078125 C 6.257812 -6.078125 5.707031 -5.925781 5.3125 -5.625 C 4.914062 -5.320312 4.71875 -4.890625 4.71875 -4.328125 C 4.71875 -3.835938 4.867188 -3.457031 5.171875 -3.1875 C 5.472656 -2.925781 5.867188 -2.796875 6.359375 -2.796875 Z M 6.359375 -2.796875 "/></g></g></g><g fill="#ffffff" fill-opacity="1"><g transform="translate(158.101582, 28.476378)"><g><path d="M 7.046875 0.21875 C 5.460938 0.21875 4.15625 -0.175781 3.125 -0.96875 C 2.09375 -1.769531 1.457031 -2.867188 1.21875 -4.265625 C 1.0625 -5.046875 0.984375 -6.066406 0.984375 -7.328125 C 0.984375 -8.273438 1.0625 -9.273438 1.21875 -10.328125 C 1.457031 -11.679688 2.097656 -12.757812 3.140625 -13.5625 C 4.179688 -14.363281 5.484375 -14.765625 7.046875 -14.765625 C 8.578125 -14.765625 9.863281 -14.378906 10.90625 -13.609375 C 11.957031 -12.835938 12.601562 -11.820312 12.84375 -10.5625 C 12.882812 -10.382812 12.921875 -10.109375 12.953125 -9.734375 C 12.953125 -9.523438 12.84375 -9.398438 12.625 -9.359375 L 9.359375 -9.0625 L 9.3125 -9.0625 C 9.144531 -9.0625 9.039062 -9.160156 9 -9.359375 C 9 -9.492188 8.988281 -9.59375 8.96875 -9.65625 C 8.925781 -9.800781 8.890625 -9.929688 8.859375 -10.046875 C 8.742188 -10.421875 8.523438 -10.726562 8.203125 -10.96875 C 7.878906 -11.21875 7.484375 -11.34375 7.015625 -11.34375 C 6.503906 -11.34375 6.085938 -11.191406 5.765625 -10.890625 C 5.453125 -10.585938 5.25 -10.175781 5.15625 -9.65625 C 5.039062 -9.03125 4.984375 -8.242188 4.984375 -7.296875 C 4.984375 -6.265625 5.046875 -5.453125 5.171875 -4.859375 C 5.265625 -4.359375 5.46875 -3.957031 5.78125 -3.65625 C 6.09375 -3.351562 6.503906 -3.203125 7.015625 -3.203125 C 7.566406 -3.203125 8.003906 -3.351562 8.328125 -3.65625 C 8.660156 -3.957031 8.851562 -4.332031 8.90625 -4.78125 L 8.96875 -5.125 C 8.988281 -5.21875 9.03125 -5.296875 9.09375 -5.359375 C 9.164062 -5.429688 9.25 -5.457031 9.34375 -5.4375 L 12.625 -5.15625 C 12.832031 -5.113281 12.9375 -4.988281 12.9375 -4.78125 C 12.9375 -4.664062 12.914062 -4.476562 12.875 -4.21875 C 12.6875 -2.84375 12.066406 -1.757812 11.015625 -0.96875 C 9.972656 -0.175781 8.648438 0.21875 7.046875 0.21875 Z M 7.046875 0.21875 "/></g></g></g><g fill="#ffffff" fill-opacity="1"><g transform="translate(171.848336, 28.476378)"><g><path d="M 8.765625 -11.890625 C 8.765625 -11.796875 8.734375 -11.710938 8.671875 -11.640625 C 8.609375 -11.578125 8.53125 -11.546875 8.4375 -11.546875 L 6.25 -11.546875 C 6.15625 -11.546875 6.109375 -11.5 6.109375 -11.40625 L 6.109375 -5.03125 C 6.109375 -4.445312 6.222656 -4.023438 6.453125 -3.765625 C 6.691406 -3.515625 7.0625 -3.398438 7.5625 -3.421875 L 8.125 -3.421875 C 8.21875 -3.421875 8.296875 -3.382812 8.359375 -3.3125 C 8.421875 -3.25 8.453125 -3.171875 8.453125 -3.078125 L 8.453125 -0.34375 C 8.453125 -0.113281 8.34375 0 8.125 0 C 7.800781 0.0195312 7.328125 0.03125 6.703125 0.03125 C 5.210938 0.03125 4.101562 -0.210938 3.375 -0.703125 C 2.65625 -1.191406 2.296875 -2.117188 2.296875 -3.484375 L 2.296875 -11.40625 C 2.296875 -11.5 2.25 -11.546875 2.15625 -11.546875 L 0.84375 -11.546875 C 0.75 -11.546875 0.671875 -11.578125 0.609375 -11.640625 C 0.546875 -11.710938 0.515625 -11.796875 0.515625 -11.890625 L 0.515625 -14.203125 C 0.515625 -14.296875 0.546875 -14.375 0.609375 -14.4375 C 0.671875 -14.507812 0.75 -14.546875 0.84375 -14.546875 L 2.15625 -14.546875 C 2.25 -14.546875 2.296875 -14.59375 2.296875 -14.6875 L 2.296875 -17.9375 C 2.296875 -18.03125 2.328125 -18.109375 2.390625 -18.171875 C 2.453125 -18.242188 2.53125 -18.28125 2.625 -18.28125 L 5.765625 -18.28125 C 5.859375 -18.28125 5.9375 -18.242188 6 -18.171875 C 6.070312 -18.109375 6.109375 -18.03125 6.109375 -17.9375 L 6.109375 -14.6875 C 6.109375 -14.59375 6.15625 -14.546875 6.25 -14.546875 L 8.4375 -14.546875 C 8.53125 -14.546875 8.609375 -14.507812 8.671875 -14.4375 C 8.734375 -14.375 8.765625 -14.296875 8.765625 -14.203125 Z M 8.765625 -11.890625 "/></g></g></g><g fill="#ffffff" fill-opacity="1"><g transform="translate(181.323983, 28.476378)"><g><path d="M 6.59375 0.203125 C 4.84375 0.203125 3.445312 -0.179688 2.40625 -0.953125 C 1.363281 -1.734375 0.84375 -2.753906 0.84375 -4.015625 L 0.84375 -4.25 C 0.84375 -4.34375 0.875 -4.421875 0.9375 -4.484375 C 1.007812 -4.546875 1.09375 -4.578125 1.1875 -4.578125 L 4.296875 -4.578125 C 4.390625 -4.578125 4.46875 -4.546875 4.53125 -4.484375 C 4.601562 -4.421875 4.640625 -4.34375 4.640625 -4.25 L 4.640625 -4.1875 C 4.640625 -3.769531 4.828125 -3.425781 5.203125 -3.15625 C 5.578125 -2.894531 6.039062 -2.765625 6.59375 -2.765625 C 7.101562 -2.765625 7.507812 -2.882812 7.8125 -3.125 C 8.113281 -3.363281 8.265625 -3.660156 8.265625 -4.015625 C 8.265625 -4.378906 8.097656 -4.65625 7.765625 -4.84375 C 7.429688 -5.03125 6.898438 -5.242188 6.171875 -5.484375 C 5.867188 -5.566406 5.414062 -5.71875 4.8125 -5.9375 C 3.675781 -6.320312 2.753906 -6.832031 2.046875 -7.46875 C 1.335938 -8.113281 0.984375 -9.039062 0.984375 -10.25 C 0.984375 -11.625 1.484375 -12.71875 2.484375 -13.53125 C 3.484375 -14.34375 4.804688 -14.75 6.453125 -14.75 C 8.148438 -14.75 9.503906 -14.328125 10.515625 -13.484375 C 11.523438 -12.640625 12.03125 -11.519531 12.03125 -10.125 C 12.03125 -9.914062 11.914062 -9.8125 11.6875 -9.8125 L 8.625 -9.8125 C 8.53125 -9.8125 8.453125 -9.84375 8.390625 -9.90625 C 8.328125 -9.976562 8.296875 -10.0625 8.296875 -10.15625 L 8.296875 -10.25 C 8.296875 -10.644531 8.132812 -10.972656 7.8125 -11.234375 C 7.488281 -11.492188 7.054688 -11.625 6.515625 -11.625 C 6.003906 -11.625 5.59375 -11.5 5.28125 -11.25 C 4.96875 -11.007812 4.8125 -10.710938 4.8125 -10.359375 C 4.8125 -9.960938 5 -9.65625 5.375 -9.4375 C 5.75 -9.21875 6.328125 -8.992188 7.109375 -8.765625 C 7.273438 -8.710938 7.4375 -8.660156 7.59375 -8.609375 C 7.757812 -8.566406 7.90625 -8.515625 8.03125 -8.453125 C 9.3125 -8.023438 10.335938 -7.503906 11.109375 -6.890625 C 11.890625 -6.273438 12.28125 -5.363281 12.28125 -4.15625 C 12.28125 -2.800781 11.765625 -1.734375 10.734375 -0.953125 C 9.710938 -0.179688 8.332031 0.203125 6.59375 0.203125 Z M 6.59375 0.203125 "/></g></g></g></g></g><g clip-path="url(#9763ed5467)"><g clip-path="url(#f2f41bdc8f)"><g transform="matrix(1, 0, 0, 1, 1104, 649)"><g clip-path="url(#40392a4425)"><g clip-path="url(#0ace44dbc8)"><g clip-path="url(#459264847f)"><path fill="#000000" d="M 0.230469 0.222656 L 270.078125 0.222656 L 270.078125 88 L 0.230469 88 Z M 0.230469 0.222656 " fill-opacity="1" fill-rule="nonzero"/></g></g></g></g></g></g><g transform="matrix(1, 0, 0, 1, 1155, 677)"><g clip-path="url(#c73f8f6048)"><g fill="#ffffff" fill-opacity="1"><g transform="translate(0.660181, 28.32671)"><g><path d="M 7.4375 0.21875 C 6.132812 0.21875 4.992188 -0.0078125 4.015625 -0.46875 C 3.035156 -0.925781 2.273438 -1.570312 1.734375 -2.40625 C 1.203125 -3.25 0.9375 -4.21875 0.9375 -5.3125 L 0.9375 -6.0625 C 0.9375 -6.15625 0.96875 -6.234375 1.03125 -6.296875 C 1.09375 -6.359375 1.171875 -6.390625 1.265625 -6.390625 L 4.53125 -6.390625 C 4.625 -6.390625 4.703125 -6.359375 4.765625 -6.296875 C 4.828125 -6.234375 4.859375 -6.15625 4.859375 -6.0625 L 4.859375 -5.515625 C 4.859375 -4.859375 5.101562 -4.304688 5.59375 -3.859375 C 6.09375 -3.421875 6.753906 -3.203125 7.578125 -3.203125 C 8.316406 -3.203125 8.878906 -3.390625 9.265625 -3.765625 C 9.648438 -4.140625 9.84375 -4.617188 9.84375 -5.203125 C 9.84375 -5.640625 9.71875 -6.015625 9.46875 -6.328125 C 9.226562 -6.640625 8.882812 -6.929688 8.4375 -7.203125 C 8 -7.472656 7.316406 -7.84375 6.390625 -8.3125 C 5.265625 -8.882812 4.34375 -9.414062 3.625 -9.90625 C 2.90625 -10.394531 2.289062 -11.023438 1.78125 -11.796875 C 1.269531 -12.566406 1.015625 -13.5 1.015625 -14.59375 C 1.015625 -15.695312 1.273438 -16.65625 1.796875 -17.46875 C 2.316406 -18.289062 3.046875 -18.921875 3.984375 -19.359375 C 4.929688 -19.804688 6.007812 -20.03125 7.21875 -20.03125 C 8.476562 -20.03125 9.597656 -19.789062 10.578125 -19.3125 C 11.554688 -18.832031 12.320312 -18.15625 12.875 -17.28125 C 13.425781 -16.414062 13.703125 -15.421875 13.703125 -14.296875 L 13.703125 -13.71875 C 13.703125 -13.625 13.664062 -13.546875 13.59375 -13.484375 C 13.53125 -13.421875 13.453125 -13.390625 13.359375 -13.390625 L 10.109375 -13.390625 C 10.003906 -13.390625 9.921875 -13.421875 9.859375 -13.484375 C 9.796875 -13.546875 9.765625 -13.625 9.765625 -13.71875 L 9.765625 -14.234375 C 9.765625 -14.910156 9.523438 -15.472656 9.046875 -15.921875 C 8.578125 -16.378906 7.9375 -16.609375 7.125 -16.609375 C 6.445312 -16.609375 5.914062 -16.429688 5.53125 -16.078125 C 5.144531 -15.734375 4.953125 -15.25 4.953125 -14.625 C 4.953125 -14.195312 5.0625 -13.820312 5.28125 -13.5 C 5.507812 -13.175781 5.859375 -12.867188 6.328125 -12.578125 C 6.804688 -12.285156 7.523438 -11.90625 8.484375 -11.4375 L 9.078125 -11.09375 C 10.171875 -10.488281 11.023438 -9.960938 11.640625 -9.515625 C 12.253906 -9.078125 12.769531 -8.515625 13.1875 -7.828125 C 13.601562 -7.148438 13.8125 -6.332031 13.8125 -5.375 C 13.8125 -3.65625 13.226562 -2.289062 12.0625 -1.28125 C 10.90625 -0.28125 9.363281 0.21875 7.4375 0.21875 Z M 7.4375 0.21875 "/></g></g></g><g fill="#ffffff" fill-opacity="1"><g transform="translate(15.368643, 28.32671)"><g><path d="M 12.953125 -9.484375 C 13.015625 -8.859375 13.046875 -8.164062 13.046875 -7.40625 L 13.015625 -6.3125 C 13.015625 -6.082031 12.898438 -5.96875 12.671875 -5.96875 L 5.171875 -5.96875 C 5.078125 -5.96875 5.03125 -5.921875 5.03125 -5.828125 C 5.070312 -5.390625 5.113281 -5.066406 5.15625 -4.859375 C 5.25 -4.335938 5.476562 -3.925781 5.84375 -3.625 C 6.207031 -3.320312 6.664062 -3.171875 7.21875 -3.171875 C 8.144531 -3.191406 8.785156 -3.613281 9.140625 -4.4375 C 9.234375 -4.625 9.375 -4.703125 9.5625 -4.671875 L 12.5625 -4.078125 C 12.789062 -4.015625 12.867188 -3.875 12.796875 -3.65625 C 12.378906 -2.40625 11.691406 -1.445312 10.734375 -0.78125 C 9.785156 -0.113281 8.613281 0.21875 7.21875 0.21875 C 5.539062 0.21875 4.203125 -0.160156 3.203125 -0.921875 C 2.210938 -1.679688 1.566406 -2.78125 1.265625 -4.21875 C 1.097656 -4.988281 1.015625 -6.164062 1.015625 -7.75 C 1.015625 -8.65625 1.070312 -9.421875 1.1875 -10.046875 C 1.394531 -11.484375 2.015625 -12.628906 3.046875 -13.484375 C 4.085938 -14.335938 5.398438 -14.765625 6.984375 -14.765625 C 8.703125 -14.765625 10.097656 -14.28125 11.171875 -13.3125 C 12.253906 -12.34375 12.847656 -11.066406 12.953125 -9.484375 Z M 7.015625 -11.34375 C 6.503906 -11.34375 6.082031 -11.191406 5.75 -10.890625 C 5.425781 -10.585938 5.21875 -10.175781 5.125 -9.65625 C 5.0625 -9.3125 5.03125 -8.953125 5.03125 -8.578125 C 5.03125 -8.484375 5.078125 -8.4375 5.171875 -8.4375 L 8.859375 -8.4375 C 8.953125 -8.4375 9 -8.484375 9 -8.578125 C 9 -8.953125 8.96875 -9.3125 8.90625 -9.65625 C 8.832031 -10.15625 8.625 -10.5625 8.28125 -10.875 C 7.945312 -11.1875 7.523438 -11.34375 7.015625 -11.34375 Z M 7.015625 -11.34375 "/></g></g></g><g fill="#ffffff" fill-opacity="1"><g transform="translate(29.285112, 28.32671)"><g><path d="M 8.453125 -14.765625 C 9.835938 -14.765625 10.921875 -14.328125 11.703125 -13.453125 C 12.484375 -12.578125 12.875 -11.359375 12.875 -9.796875 L 12.875 -0.34375 C 12.875 -0.25 12.835938 -0.164062 12.765625 -0.09375 C 12.703125 -0.03125 12.625 0 12.53125 0 L 9.21875 0 C 9.125 0 9.046875 -0.03125 8.984375 -0.09375 C 8.921875 -0.164062 8.890625 -0.25 8.890625 -0.34375 L 8.890625 -9.21875 C 8.890625 -9.882812 8.726562 -10.40625 8.40625 -10.78125 C 8.082031 -11.15625 7.648438 -11.34375 7.109375 -11.34375 C 6.535156 -11.34375 6.082031 -11.148438 5.75 -10.765625 C 5.425781 -10.378906 5.265625 -9.859375 5.265625 -9.203125 L 5.265625 -0.34375 C 5.265625 -0.25 5.226562 -0.164062 5.15625 -0.09375 C 5.09375 -0.03125 5.015625 0 4.921875 0 L 1.609375 0 C 1.515625 0 1.429688 -0.03125 1.359375 -0.09375 C 1.296875 -0.164062 1.265625 -0.25 1.265625 -0.34375 L 1.265625 -14.203125 C 1.265625 -14.296875 1.296875 -14.375 1.359375 -14.4375 C 1.429688 -14.507812 1.515625 -14.546875 1.609375 -14.546875 L 4.921875 -14.546875 C 5.015625 -14.546875 5.09375 -14.507812 5.15625 -14.4375 C 5.226562 -14.375 5.265625 -14.296875 5.265625 -14.203125 L 5.265625 -13.40625 C 5.265625 -13.351562 5.28125 -13.320312 5.3125 -13.3125 C 5.351562 -13.300781 5.40625 -13.332031 5.46875 -13.40625 C 6.144531 -14.3125 7.140625 -14.765625 8.453125 -14.765625 Z M 8.453125 -14.765625 "/></g></g></g><g fill="#ffffff" fill-opacity="1"><g transform="translate(43.342999, 28.32671)"><g><path d="M 9.03125 -19.46875 C 9.03125 -19.5625 9.0625 -19.640625 9.125 -19.703125 C 9.1875 -19.773438 9.265625 -19.8125 9.359375 -19.8125 L 12.671875 -19.8125 C 12.765625 -19.8125 12.84375 -19.773438 12.90625 -19.703125 C 12.976562 -19.640625 13.015625 -19.5625 13.015625 -19.46875 L 13.015625 -0.34375 C 13.015625 -0.25 12.976562 -0.164062 12.90625 -0.09375 C 12.84375 -0.03125 12.765625 0 12.671875 0 L 9.359375 0 C 9.265625 0 9.1875 -0.03125 9.125 -0.09375 C 9.0625 -0.164062 9.03125 -0.25 9.03125 -0.34375 L 9.03125 -0.96875 C 9.03125 -1.019531 9.007812 -1.054688 8.96875 -1.078125 C 8.925781 -1.097656 8.890625 -1.078125 8.859375 -1.015625 C 8.160156 -0.191406 7.160156 0.21875 5.859375 0.21875 C 3.554688 0.21875 2.078125 -1.273438 1.421875 -4.265625 C 1.222656 -5.210938 1.125 -6.257812 1.125 -7.40625 C 1.125 -8.425781 1.210938 -9.421875 1.390625 -10.390625 C 1.972656 -13.304688 3.476562 -14.765625 5.90625 -14.765625 C 6.570312 -14.765625 7.140625 -14.675781 7.609375 -14.5 C 8.078125 -14.320312 8.492188 -14.015625 8.859375 -13.578125 C 8.890625 -13.523438 8.925781 -13.503906 8.96875 -13.515625 C 9.007812 -13.535156 9.03125 -13.578125 9.03125 -13.640625 Z M 8.796875 -4.84375 C 8.929688 -5.382812 9 -6.203125 9 -7.296875 C 9 -8.296875 8.921875 -9.128906 8.765625 -9.796875 C 8.523438 -10.828125 7.972656 -11.34375 7.109375 -11.34375 C 6.671875 -11.34375 6.3125 -11.210938 6.03125 -10.953125 C 5.75 -10.691406 5.539062 -10.3125 5.40625 -9.8125 C 5.238281 -9.269531 5.15625 -8.429688 5.15625 -7.296875 C 5.15625 -6.222656 5.21875 -5.410156 5.34375 -4.859375 C 5.59375 -3.753906 6.179688 -3.203125 7.109375 -3.203125 C 7.953125 -3.203125 8.515625 -3.75 8.796875 -4.84375 Z M 8.796875 -4.84375 "/></g></g></g><g fill="#ffffff" fill-opacity="1"><g transform="translate(57.627173, 28.32671)"><g/></g></g><g fill="#ffffff" fill-opacity="1"><g transform="translate(63.284276, 28.32671)"><g><path d="M 8.765625 -11.890625 C 8.765625 -11.796875 8.734375 -11.710938 8.671875 -11.640625 C 8.609375 -11.578125 8.53125 -11.546875 8.4375 -11.546875 L 6.25 -11.546875 C 6.15625 -11.546875 6.109375 -11.5 6.109375 -11.40625 L 6.109375 -5.03125 C 6.109375 -4.445312 6.222656 -4.023438 6.453125 -3.765625 C 6.691406 -3.515625 7.0625 -3.398438 7.5625 -3.421875 L 8.125 -3.421875 C 8.21875 -3.421875 8.296875 -3.382812 8.359375 -3.3125 C 8.421875 -3.25 8.453125 -3.171875 8.453125 -3.078125 L 8.453125 -0.34375 C 8.453125 -0.113281 8.34375 0 8.125 0 C 7.800781 0.0195312 7.328125 0.03125 6.703125 0.03125 C 5.210938 0.03125 4.101562 -0.210938 3.375 -0.703125 C 2.65625 -1.191406 2.296875 -2.117188 2.296875 -3.484375 L 2.296875 -11.40625 C 2.296875 -11.5 2.25 -11.546875 2.15625 -11.546875 L 0.84375 -11.546875 C 0.75 -11.546875 0.671875 -11.578125 0.609375 -11.640625 C 0.546875 -11.710938 0.515625 -11.796875 0.515625 -11.890625 L 0.515625 -14.203125 C 0.515625 -14.296875 0.546875 -14.375 0.609375 -14.4375 C 0.671875 -14.507812 0.75 -14.546875 0.84375 -14.546875 L 2.15625 -14.546875 C 2.25 -14.546875 2.296875 -14.59375 2.296875 -14.6875 L 2.296875 -17.9375 C 2.296875 -18.03125 2.328125 -18.109375 2.390625 -18.171875 C 2.453125 -18.242188 2.53125 -18.28125 2.625 -18.28125 L 5.765625 -18.28125 C 5.859375 -18.28125 5.9375 -18.242188 6 -18.171875 C 6.070312 -18.109375 6.109375 -18.03125 6.109375 -17.9375 L 6.109375 -14.6875 C 6.109375 -14.59375 6.15625 -14.546875 6.25 -14.546875 L 8.4375 -14.546875 C 8.53125 -14.546875 8.609375 -14.507812 8.671875 -14.4375 C 8.734375 -14.375 8.765625 -14.296875 8.765625 -14.203125 Z M 8.765625 -11.890625 "/></g></g></g><g fill="#ffffff" fill-opacity="1"><g transform="translate(72.759922, 28.32671)"><g><path d="M 7.125 0.21875 C 5.488281 0.21875 4.144531 -0.1875 3.09375 -1 C 2.050781 -1.820312 1.425781 -2.953125 1.21875 -4.390625 C 1.0625 -5.253906 0.984375 -6.222656 0.984375 -7.296875 C 0.984375 -8.390625 1.0625 -9.363281 1.21875 -10.21875 C 1.425781 -11.613281 2.050781 -12.71875 3.09375 -13.53125 C 4.144531 -14.351562 5.488281 -14.765625 7.125 -14.765625 C 8.75 -14.765625 10.078125 -14.351562 11.109375 -13.53125 C 12.140625 -12.71875 12.765625 -11.613281 12.984375 -10.21875 C 13.140625 -9.363281 13.21875 -8.390625 13.21875 -7.296875 C 13.21875 -6.242188 13.140625 -5.285156 12.984375 -4.421875 C 12.773438 -2.960938 12.15625 -1.820312 11.125 -1 C 10.101562 -0.1875 8.769531 0.21875 7.125 0.21875 Z M 7.125 -3.203125 C 7.613281 -3.203125 8.03125 -3.359375 8.375 -3.671875 C 8.726562 -3.992188 8.960938 -4.429688 9.078125 -4.984375 C 9.171875 -5.773438 9.21875 -6.546875 9.21875 -7.296875 C 9.21875 -8.066406 9.171875 -8.832031 9.078125 -9.59375 C 8.984375 -10.132812 8.757812 -10.5625 8.40625 -10.875 C 8.0625 -11.1875 7.628906 -11.34375 7.109375 -11.34375 C 6.597656 -11.34375 6.164062 -11.1875 5.8125 -10.875 C 5.46875 -10.5625 5.25 -10.132812 5.15625 -9.59375 C 5.0625 -9.03125 5.015625 -8.265625 5.015625 -7.296875 C 5.015625 -6.359375 5.050781 -5.585938 5.125 -4.984375 C 5.238281 -4.429688 5.472656 -3.992188 5.828125 -3.671875 C 6.179688 -3.359375 6.613281 -3.203125 7.125 -3.203125 Z M 7.125 -3.203125 "/></g></g></g><g fill="#ffffff" fill-opacity="1"><g transform="translate(86.987525, 28.32671)"><g/></g></g><g fill="#ffffff" fill-opacity="1"><g transform="translate(92.644627, 28.32671)"><g><path d="M 8.609375 -19.84375 C 9.734375 -19.84375 10.734375 -19.585938 11.609375 -19.078125 C 12.492188 -18.566406 13.175781 -17.847656 13.65625 -16.921875 C 14.132812 -15.992188 14.375 -14.9375 14.375 -13.75 C 14.375 -12.582031 14.132812 -11.550781 13.65625 -10.65625 C 13.175781 -9.757812 12.492188 -9.066406 11.609375 -8.578125 C 10.734375 -8.085938 9.734375 -7.84375 8.609375 -7.84375 L 5.546875 -7.84375 C 5.453125 -7.84375 5.40625 -7.796875 5.40625 -7.703125 L 5.40625 -0.34375 C 5.40625 -0.25 5.367188 -0.164062 5.296875 -0.09375 C 5.234375 -0.03125 5.15625 0 5.0625 0 L 1.75 0 C 1.65625 0 1.578125 -0.03125 1.515625 -0.09375 C 1.453125 -0.164062 1.421875 -0.25 1.421875 -0.34375 L 1.421875 -19.5 C 1.421875 -19.59375 1.453125 -19.671875 1.515625 -19.734375 C 1.578125 -19.804688 1.65625 -19.84375 1.75 -19.84375 Z M 7.953125 -11 C 8.691406 -11 9.28125 -11.238281 9.71875 -11.71875 C 10.164062 -12.207031 10.390625 -12.859375 10.390625 -13.671875 C 10.390625 -14.492188 10.164062 -15.148438 9.71875 -15.640625 C 9.28125 -16.140625 8.691406 -16.390625 7.953125 -16.390625 L 5.546875 -16.390625 C 5.453125 -16.390625 5.40625 -16.34375 5.40625 -16.25 L 5.40625 -11.15625 C 5.40625 -11.050781 5.453125 -11 5.546875 -11 Z M 7.953125 -11 "/></g></g></g><g fill="#ffffff" fill-opacity="1"><g transform="translate(107.664223, 28.32671)"><g><path d="M 8.453125 -14.765625 C 9.835938 -14.765625 10.921875 -14.328125 11.703125 -13.453125 C 12.484375 -12.578125 12.875 -11.359375 12.875 -9.796875 L 12.875 -0.34375 C 12.875 -0.25 12.835938 -0.164062 12.765625 -0.09375 C 12.703125 -0.03125 12.625 0 12.53125 0 L 9.21875 0 C 9.125 0 9.046875 -0.03125 8.984375 -0.09375 C 8.921875 -0.164062 8.890625 -0.25 8.890625 -0.34375 L 8.890625 -9.21875 C 8.890625 -9.882812 8.726562 -10.40625 8.40625 -10.78125 C 8.082031 -11.15625 7.648438 -11.34375 7.109375 -11.34375 C 6.535156 -11.34375 6.082031 -11.148438 5.75 -10.765625 C 5.425781 -10.378906 5.265625 -9.859375 5.265625 -9.203125 L 5.265625 -0.34375 C 5.265625 -0.25 5.226562 -0.164062 5.15625 -0.09375 C 5.09375 -0.03125 5.015625 0 4.921875 0 L 1.609375 0 C 1.515625 0 1.429688 -0.03125 1.359375 -0.09375 C 1.296875 -0.164062 1.265625 -0.25 1.265625 -0.34375 L 1.265625 -19.46875 C 1.265625 -19.5625 1.296875 -19.640625 1.359375 -19.703125 C 1.429688 -19.773438 1.515625 -19.8125 1.609375 -19.8125 L 4.921875 -19.8125 C 5.015625 -19.8125 5.09375 -19.773438 5.15625 -19.703125 C 5.226562 -19.640625 5.265625 -19.5625 5.265625 -19.46875 L 5.265625 -13.40625 C 5.265625 -13.351562 5.28125 -13.320312 5.3125 -13.3125 C 5.351562 -13.300781 5.40625 -13.332031 5.46875 -13.40625 C 6.144531 -14.3125 7.140625 -14.765625 8.453125 -14.765625 Z M 8.453125 -14.765625 "/></g></g></g><g fill="#ffffff" fill-opacity="1"><g transform="translate(121.72211, 28.32671)"><g><path d="M 7.125 0.21875 C 5.488281 0.21875 4.144531 -0.1875 3.09375 -1 C 2.050781 -1.820312 1.425781 -2.953125 1.21875 -4.390625 C 1.0625 -5.253906 0.984375 -6.222656 0.984375 -7.296875 C 0.984375 -8.390625 1.0625 -9.363281 1.21875 -10.21875 C 1.425781 -11.613281 2.050781 -12.71875 3.09375 -13.53125 C 4.144531 -14.351562 5.488281 -14.765625 7.125 -14.765625 C 8.75 -14.765625 10.078125 -14.351562 11.109375 -13.53125 C 12.140625 -12.71875 12.765625 -11.613281 12.984375 -10.21875 C 13.140625 -9.363281 13.21875 -8.390625 13.21875 -7.296875 C 13.21875 -6.242188 13.140625 -5.285156 12.984375 -4.421875 C 12.773438 -2.960938 12.15625 -1.820312 11.125 -1 C 10.101562 -0.1875 8.769531 0.21875 7.125 0.21875 Z M 7.125 -3.203125 C 7.613281 -3.203125 8.03125 -3.359375 8.375 -3.671875 C 8.726562 -3.992188 8.960938 -4.429688 9.078125 -4.984375 C 9.171875 -5.773438 9.21875 -6.546875 9.21875 -7.296875 C 9.21875 -8.066406 9.171875 -8.832031 9.078125 -9.59375 C 8.984375 -10.132812 8.757812 -10.5625 8.40625 -10.875 C 8.0625 -11.1875 7.628906 -11.34375 7.109375 -11.34375 C 6.597656 -11.34375 6.164062 -11.1875 5.8125 -10.875 C 5.46875 -10.5625 5.25 -10.132812 5.15625 -9.59375 C 5.0625 -9.03125 5.015625 -8.265625 5.015625 -7.296875 C 5.015625 -6.359375 5.050781 -5.585938 5.125 -4.984375 C 5.238281 -4.429688 5.472656 -3.992188 5.828125 -3.671875 C 6.179688 -3.359375 6.613281 -3.203125 7.125 -3.203125 Z M 7.125 -3.203125 "/></g></g></g><g fill="#ffffff" fill-opacity="1"><g transform="translate(135.949713, 28.32671)"><g><path d="M 8.453125 -14.765625 C 9.835938 -14.765625 10.921875 -14.328125 11.703125 -13.453125 C 12.484375 -12.578125 12.875 -11.359375 12.875 -9.796875 L 12.875 -0.34375 C 12.875 -0.25 12.835938 -0.164062 12.765625 -0.09375 C 12.703125 -0.03125 12.625 0 12.53125 0 L 9.21875 0 C 9.125 0 9.046875 -0.03125 8.984375 -0.09375 C 8.921875 -0.164062 8.890625 -0.25 8.890625 -0.34375 L 8.890625 -9.21875 C 8.890625 -9.882812 8.726562 -10.40625 8.40625 -10.78125 C 8.082031 -11.15625 7.648438 -11.34375 7.109375 -11.34375 C 6.535156 -11.34375 6.082031 -11.148438 5.75 -10.765625 C 5.425781 -10.378906 5.265625 -9.859375 5.265625 -9.203125 L 5.265625 -0.34375 C 5.265625 -0.25 5.226562 -0.164062 5.15625 -0.09375 C 5.09375 -0.03125 5.015625 0 4.921875 0 L 1.609375 0 C 1.515625 0 1.429688 -0.03125 1.359375 -0.09375 C 1.296875 -0.164062 1.265625 -0.25 1.265625 -0.34375 L 1.265625 -14.203125 C 1.265625 -14.296875 1.296875 -14.375 1.359375 -14.4375 C 1.429688 -14.507812 1.515625 -14.546875 1.609375 -14.546875 L 4.921875 -14.546875 C 5.015625 -14.546875 5.09375 -14.507812 5.15625 -14.4375 C 5.226562 -14.375 5.265625 -14.296875 5.265625 -14.203125 L 5.265625 -13.40625 C 5.265625 -13.351562 5.28125 -13.320312 5.3125 -13.3125 C 5.351562 -13.300781 5.40625 -13.332031 5.46875 -13.40625 C 6.144531 -14.3125 7.140625 -14.765625 8.453125 -14.765625 Z M 8.453125 -14.765625 "/></g></g></g><g fill="#ffffff" fill-opacity="1"><g transform="translate(150.0076, 28.32671)"><g><path d="M 12.953125 -9.484375 C 13.015625 -8.859375 13.046875 -8.164062 13.046875 -7.40625 L 13.015625 -6.3125 C 13.015625 -6.082031 12.898438 -5.96875 12.671875 -5.96875 L 5.171875 -5.96875 C 5.078125 -5.96875 5.03125 -5.921875 5.03125 -5.828125 C 5.070312 -5.390625 5.113281 -5.066406 5.15625 -4.859375 C 5.25 -4.335938 5.476562 -3.925781 5.84375 -3.625 C 6.207031 -3.320312 6.664062 -3.171875 7.21875 -3.171875 C 8.144531 -3.191406 8.785156 -3.613281 9.140625 -4.4375 C 9.234375 -4.625 9.375 -4.703125 9.5625 -4.671875 L 12.5625 -4.078125 C 12.789062 -4.015625 12.867188 -3.875 12.796875 -3.65625 C 12.378906 -2.40625 11.691406 -1.445312 10.734375 -0.78125 C 9.785156 -0.113281 8.613281 0.21875 7.21875 0.21875 C 5.539062 0.21875 4.203125 -0.160156 3.203125 -0.921875 C 2.210938 -1.679688 1.566406 -2.78125 1.265625 -4.21875 C 1.097656 -4.988281 1.015625 -6.164062 1.015625 -7.75 C 1.015625 -8.65625 1.070312 -9.421875 1.1875 -10.046875 C 1.394531 -11.484375 2.015625 -12.628906 3.046875 -13.484375 C 4.085938 -14.335938 5.398438 -14.765625 6.984375 -14.765625 C 8.703125 -14.765625 10.097656 -14.28125 11.171875 -13.3125 C 12.253906 -12.34375 12.847656 -11.066406 12.953125 -9.484375 Z M 7.015625 -11.34375 C 6.503906 -11.34375 6.082031 -11.191406 5.75 -10.890625 C 5.425781 -10.585938 5.21875 -10.175781 5.125 -9.65625 C 5.0625 -9.3125 5.03125 -8.953125 5.03125 -8.578125 C 5.03125 -8.484375 5.078125 -8.4375 5.171875 -8.4375 L 8.859375 -8.4375 C 8.953125 -8.4375 9 -8.484375 9 -8.578125 C 9 -8.953125 8.96875 -9.3125 8.90625 -9.65625 C 8.832031 -10.15625 8.625 -10.5625 8.28125 -10.875 C 7.945312 -11.1875 7.523438 -11.34375 7.015625 -11.34375 Z M 7.015625 -11.34375 "/></g></g></g></g></g></svg>