<svg xmlns="http://www.w3.org/2000/svg" xmlns:xlink="http://www.w3.org/1999/xlink" width="390" zoomAndPan="magnify" viewBox="0 0 292.5 632.999981" height="844" preserveAspectRatio="xMidYMid meet" version="1.0"><defs><g/><clipPath id="c10412878e"><path d="M 0 0.539062 L 292 0.539062 L 292 632.457031 L 0 632.457031 Z M 0 0.539062 " clip-rule="nonzero"/></clipPath><clipPath id="c1aeb6fb1e"><path d="M 0 0.539062 L 292 0.539062 L 292 294.703125 L 0 294.703125 Z M 0 0.539062 " clip-rule="nonzero"/></clipPath><clipPath id="3e368997af"><path d="M -78.851562 0.539062 L 328.738281 0.539062 C 336.183594 0.539062 342.214844 6.574219 342.214844 14.015625 L 342.214844 281.226562 C 342.214844 288.667969 336.183594 294.703125 328.738281 294.703125 L -78.851562 294.703125 C -86.296875 294.703125 -92.328125 288.667969 -92.328125 281.226562 L -92.328125 14.015625 C -92.328125 6.574219 -86.296875 0.539062 -78.851562 0.539062 Z M -78.851562 0.539062 " clip-rule="nonzero"/></clipPath><clipPath id="b0558e2ca9"><path d="M 0 0.539062 L 292 0.539062 L 292 294.703125 L 0 294.703125 Z M 0 0.539062 " clip-rule="nonzero"/></clipPath><clipPath id="1134438020"><path d="M -78.851562 0.539062 L 328.738281 0.539062 C 336.183594 0.539062 342.214844 6.574219 342.214844 14.015625 L 342.214844 281.226562 C 342.214844 288.667969 336.183594 294.703125 328.738281 294.703125 L -78.851562 294.703125 C -86.296875 294.703125 -92.328125 288.667969 -92.328125 281.226562 L -92.328125 14.015625 C -92.328125 6.574219 -86.296875 0.539062 -78.851562 0.539062 Z M -78.851562 0.539062 " clip-rule="nonzero"/></clipPath><clipPath id="d4b5d9abf6"><rect x="0" width="292" y="0" height="295"/></clipPath><clipPath id="d1189b7a6c"><path d="M 67.789062 294.703125 L 292 294.703125 L 292 327.898438 L 67.789062 327.898438 Z M 67.789062 294.703125 " clip-rule="nonzero"/></clipPath><clipPath id="0ebec8967a"><path d="M 0.789062 0.703125 L 225 0.703125 L 225 33.898438 L 0.789062 33.898438 Z M 0.789062 0.703125 " clip-rule="nonzero"/></clipPath><clipPath id="4eba271fdf"><rect x="0" width="225" y="0" height="34"/></clipPath><clipPath id="e03fef475b"><path d="M 121.734375 568.183594 L 139.707031 568.183594 L 139.707031 583.160156 L 121.734375 583.160156 Z M 121.734375 568.183594 " clip-rule="nonzero"/></clipPath><clipPath id="4cc9c67e82"><path d="M 235.640625 584.742188 L 260.347656 584.742188 L 260.347656 609.449219 L 235.640625 609.449219 Z M 235.640625 584.742188 " clip-rule="nonzero"/></clipPath><clipPath id="302bcf5bb9"><path d="M 5.007812 214.753906 L 130.566406 214.753906 L 130.566406 340.3125 L 5.007812 340.3125 Z M 5.007812 214.753906 " clip-rule="nonzero"/></clipPath><clipPath id="5b0843b323"><path d="M 67.789062 214.753906 C 33.113281 214.753906 5.007812 242.863281 5.007812 277.535156 C 5.007812 312.207031 33.113281 340.3125 67.789062 340.3125 C 102.460938 340.3125 130.566406 312.207031 130.566406 277.535156 C 130.566406 242.863281 102.460938 214.753906 67.789062 214.753906 Z M 67.789062 214.753906 " clip-rule="nonzero"/></clipPath><clipPath id="46697be25b"><path d="M 0.0078125 0.753906 L 125.566406 0.753906 L 125.566406 126.3125 L 0.0078125 126.3125 Z M 0.0078125 0.753906 " clip-rule="nonzero"/></clipPath><clipPath id="8fb14b686b"><path d="M 62.789062 0.753906 C 28.113281 0.753906 0.0078125 28.863281 0.0078125 63.535156 C 0.0078125 98.207031 28.113281 126.3125 62.789062 126.3125 C 97.460938 126.3125 125.566406 98.207031 125.566406 63.535156 C 125.566406 28.863281 97.460938 0.753906 62.789062 0.753906 Z M 62.789062 0.753906 " clip-rule="nonzero"/></clipPath><clipPath id="06b34d5b01"><rect x="0" width="126" y="0" height="127"/></clipPath><clipPath id="c8099281e9"><path d="M 12.75 222.667969 L 122.824219 222.667969 L 122.824219 332.738281 L 12.75 332.738281 Z M 12.75 222.667969 " clip-rule="nonzero"/></clipPath><clipPath id="50db26ae9f"><path d="M 67.789062 222.667969 C 37.390625 222.667969 12.75 247.308594 12.75 277.703125 C 12.75 308.097656 37.390625 332.738281 67.789062 332.738281 C 98.183594 332.738281 122.824219 308.097656 122.824219 277.703125 C 122.824219 247.308594 98.183594 222.667969 67.789062 222.667969 Z M 67.789062 222.667969 " clip-rule="nonzero"/></clipPath><clipPath id="c6ae5dbecd"><path d="M 0.75 0.667969 L 110.824219 0.667969 L 110.824219 110.738281 L 0.75 110.738281 Z M 0.75 0.667969 " clip-rule="nonzero"/></clipPath><clipPath id="cffb057276"><path d="M 55.789062 0.667969 C 25.390625 0.667969 0.75 25.308594 0.75 55.703125 C 0.75 86.097656 25.390625 110.738281 55.789062 110.738281 C 86.183594 110.738281 110.824219 86.097656 110.824219 55.703125 C 110.824219 25.308594 86.183594 0.667969 55.789062 0.667969 Z M 55.789062 0.667969 " clip-rule="nonzero"/></clipPath><clipPath id="39ef2084ff"><rect x="0" width="111" y="0" height="111"/></clipPath><clipPath id="98dbacc964"><path d="M 134.296875 296.257812 L 163.664062 296.257812 L 163.664062 325.625 L 134.296875 325.625 Z M 134.296875 296.257812 " clip-rule="nonzero"/></clipPath><clipPath id="ee83a78161"><path d="M 148.980469 296.257812 C 140.871094 296.257812 134.296875 302.832031 134.296875 310.941406 C 134.296875 319.050781 140.871094 325.625 148.980469 325.625 C 157.089844 325.625 163.664062 319.050781 163.664062 310.941406 C 163.664062 302.832031 157.089844 296.257812 148.980469 296.257812 Z M 148.980469 296.257812 " clip-rule="nonzero"/></clipPath><clipPath id="0608da20ce"><path d="M 0.296875 0.257812 L 29.664062 0.257812 L 29.664062 29.625 L 0.296875 29.625 Z M 0.296875 0.257812 " clip-rule="nonzero"/></clipPath><clipPath id="8cba33b44f"><path d="M 14.980469 0.257812 C 6.871094 0.257812 0.296875 6.832031 0.296875 14.941406 C 0.296875 23.050781 6.871094 29.625 14.980469 29.625 C 23.089844 29.625 29.664062 23.050781 29.664062 14.941406 C 29.664062 6.832031 23.089844 0.257812 14.980469 0.257812 Z M 14.980469 0.257812 " clip-rule="nonzero"/></clipPath><clipPath id="d54a00706b"><rect x="0" width="30" y="0" height="30"/></clipPath><clipPath id="f027bde123"><path d="M 191.398438 296.257812 L 220.765625 296.257812 L 220.765625 325.625 L 191.398438 325.625 Z M 191.398438 296.257812 " clip-rule="nonzero"/></clipPath><clipPath id="0e863b5fd2"><path d="M 206.082031 296.257812 C 197.972656 296.257812 191.398438 302.832031 191.398438 310.941406 C 191.398438 319.050781 197.972656 325.625 206.082031 325.625 C 214.191406 325.625 220.765625 319.050781 220.765625 310.941406 C 220.765625 302.832031 214.191406 296.257812 206.082031 296.257812 Z M 206.082031 296.257812 " clip-rule="nonzero"/></clipPath><clipPath id="82c7d27a28"><path d="M 0.398438 0.257812 L 29.765625 0.257812 L 29.765625 29.625 L 0.398438 29.625 Z M 0.398438 0.257812 " clip-rule="nonzero"/></clipPath><clipPath id="10debb6731"><path d="M 15.082031 0.257812 C 6.972656 0.257812 0.398438 6.832031 0.398438 14.941406 C 0.398438 23.050781 6.972656 29.625 15.082031 29.625 C 23.191406 29.625 29.765625 23.050781 29.765625 14.941406 C 29.765625 6.832031 23.191406 0.257812 15.082031 0.257812 Z M 15.082031 0.257812 " clip-rule="nonzero"/></clipPath><clipPath id="09f2905793"><rect x="0" width="30" y="0" height="30"/></clipPath><clipPath id="be3e920e37"><path d="M 245.476562 296.257812 L 274.84375 296.257812 L 274.84375 325.625 L 245.476562 325.625 Z M 245.476562 296.257812 " clip-rule="nonzero"/></clipPath><clipPath id="8dc4e7807a"><path d="M 260.160156 296.257812 C 252.050781 296.257812 245.476562 302.832031 245.476562 310.941406 C 245.476562 319.050781 252.050781 325.625 260.160156 325.625 C 268.269531 325.625 274.84375 319.050781 274.84375 310.941406 C 274.84375 302.832031 268.269531 296.257812 260.160156 296.257812 Z M 260.160156 296.257812 " clip-rule="nonzero"/></clipPath><clipPath id="44662d87c9"><path d="M 0.476562 0.257812 L 29.84375 0.257812 L 29.84375 29.625 L 0.476562 29.625 Z M 0.476562 0.257812 " clip-rule="nonzero"/></clipPath><clipPath id="25c69878b3"><path d="M 15.160156 0.257812 C 7.050781 0.257812 0.476562 6.832031 0.476562 14.941406 C 0.476562 23.050781 7.050781 29.625 15.160156 29.625 C 23.269531 29.625 29.84375 23.050781 29.84375 14.941406 C 29.84375 6.832031 23.269531 0.257812 15.160156 0.257812 Z M 15.160156 0.257812 " clip-rule="nonzero"/></clipPath><clipPath id="d2d87de3b2"><rect x="0" width="30" y="0" height="30"/></clipPath><clipPath id="f583c02e0e"><path d="M 140.394531 302.175781 L 157 302.175781 L 157 319.398438 L 140.394531 319.398438 Z M 140.394531 302.175781 " clip-rule="nonzero"/></clipPath><clipPath id="c003dc6779"><path d="M 197.546875 304.828125 L 214.765625 304.828125 L 214.765625 316.808594 L 197.546875 316.808594 Z M 197.546875 304.828125 " clip-rule="nonzero"/></clipPath><clipPath id="68391f3a94"><path d="M 251.476562 302.175781 L 268.695312 302.175781 L 268.695312 319.398438 L 251.476562 319.398438 Z M 251.476562 302.175781 " clip-rule="nonzero"/></clipPath></defs><g clip-path="url(#c10412878e)"><path fill="#ffffff" d="M 0 0.539062 L 292 0.539062 L 292 632.460938 L 0 632.460938 Z M 0 0.539062 " fill-opacity="1" fill-rule="nonzero"/><path fill="#ffffff" d="M 0 0.539062 L 292 0.539062 L 292 632.460938 L 0 632.460938 Z M 0 0.539062 " fill-opacity="1" fill-rule="nonzero"/></g><g clip-path="url(#c1aeb6fb1e)"><g clip-path="url(#3e368997af)"><g transform="matrix(1, 0, 0, 1, 0, -0.000000000000015987)"><g clip-path="url(#d4b5d9abf6)"><g clip-path="url(#b0558e2ca9)"><g clip-path="url(#1134438020)"><path fill="#000000" d="M -92.328125 0.539062 L 342.019531 0.539062 L 342.019531 294.703125 L -92.328125 294.703125 Z M -92.328125 0.539062 " fill-opacity="1" fill-rule="nonzero"/></g></g></g></g></g></g><g clip-path="url(#d1189b7a6c)"><g transform="matrix(1, 0, 0, 1, 67, 294)"><g clip-path="url(#4eba271fdf)"><g clip-path="url(#0ebec8967a)"><path fill="#1f8f3a" d="M 0.789062 0.703125 L 243.671875 0.703125 L 243.671875 33.898438 L 0.789062 33.898438 Z M 0.789062 0.703125 " fill-opacity="1" fill-rule="nonzero"/></g></g></g></g><g clip-path="url(#e03fef475b)"><path fill="#ffffff" d="M 139.355469 568.589844 C 139.355469 568.585938 139.355469 568.585938 139.355469 568.585938 C 139.359375 568.578125 139.363281 568.570312 139.367188 568.5625 C 139.367188 568.558594 139.371094 568.554688 139.371094 568.554688 C 139.375 568.542969 139.378906 568.535156 139.378906 568.527344 C 139.378906 568.523438 139.378906 568.523438 139.382812 568.523438 C 139.382812 568.511719 139.386719 568.503906 139.386719 568.492188 C 139.386719 568.488281 139.386719 568.488281 139.386719 568.484375 C 139.390625 568.476562 139.390625 568.46875 139.390625 568.460938 C 139.390625 568.457031 139.390625 568.453125 139.390625 568.453125 C 139.390625 568.429688 139.386719 568.410156 139.382812 568.386719 C 139.382812 568.386719 139.378906 568.382812 139.378906 568.378906 C 139.378906 568.371094 139.375 568.363281 139.371094 568.355469 C 139.371094 568.355469 139.371094 568.351562 139.367188 568.347656 C 139.363281 568.339844 139.359375 568.332031 139.355469 568.324219 C 139.355469 568.320312 139.355469 568.320312 139.355469 568.320312 C 139.355469 568.320312 139.355469 568.320312 139.355469 568.316406 C 139.347656 568.308594 139.34375 568.300781 139.335938 568.292969 C 139.335938 568.289062 139.332031 568.289062 139.332031 568.285156 C 139.324219 568.277344 139.320312 568.273438 139.3125 568.265625 C 139.3125 568.265625 139.308594 568.261719 139.308594 568.261719 C 139.300781 568.253906 139.292969 568.246094 139.285156 568.242188 C 139.285156 568.242188 139.285156 568.242188 139.285156 568.238281 C 139.277344 568.234375 139.265625 568.226562 139.257812 568.222656 C 139.253906 568.21875 139.253906 568.21875 139.25 568.21875 C 139.246094 568.214844 139.238281 568.210938 139.230469 568.207031 C 139.226562 568.207031 139.222656 568.203125 139.222656 568.203125 C 139.210938 568.199219 139.203125 568.199219 139.195312 568.195312 C 139.195312 568.195312 139.191406 568.195312 139.191406 568.195312 C 139.179688 568.191406 139.171875 568.1875 139.160156 568.1875 C 139.15625 568.1875 139.15625 568.1875 139.152344 568.1875 C 139.144531 568.1875 139.132812 568.183594 139.125 568.183594 C 139.125 568.183594 139.121094 568.183594 139.121094 568.183594 L 122.027344 568.183594 C 121.914062 568.183594 121.8125 568.257812 121.773438 568.363281 C 121.734375 568.472656 121.769531 568.589844 121.855469 568.664062 L 128.933594 574.386719 L 130.242188 583.269531 C 130.257812 583.382812 130.34375 583.472656 130.457031 583.492188 C 130.472656 583.496094 130.492188 583.5 130.507812 583.5 C 130.601562 583.5 130.691406 583.449219 130.738281 583.363281 L 139.351562 568.59375 Z M 138.125 568.722656 L 129.210938 573.917969 L 122.785156 568.722656 Z M 130.660156 582.429688 L 129.476562 574.382812 L 138.375 569.199219 Z M 130.660156 582.429688 " fill-opacity="1" fill-rule="nonzero"/></g><g fill="#ffffff" fill-opacity="1"><g transform="translate(144.367406, 579.714219)"><g><path d="M 3.796875 0.125 C 3.203125 0.125 2.671875 0.0507812 2.203125 -0.09375 C 1.742188 -0.238281 1.359375 -0.429688 1.046875 -0.671875 C 0.742188 -0.910156 0.507812 -1.171875 0.34375 -1.453125 L 1.28125 -2.59375 L 1.421875 -2.59375 C 1.679688 -2.207031 2.007812 -1.898438 2.40625 -1.671875 C 2.800781 -1.453125 3.265625 -1.34375 3.796875 -1.34375 C 4.242188 -1.34375 4.582031 -1.4375 4.8125 -1.625 C 5.039062 -1.8125 5.15625 -2.078125 5.15625 -2.421875 C 5.15625 -2.617188 5.117188 -2.785156 5.046875 -2.921875 C 4.972656 -3.054688 4.847656 -3.171875 4.671875 -3.265625 C 4.503906 -3.367188 4.273438 -3.457031 3.984375 -3.53125 L 2.890625 -3.78125 C 2.117188 -3.957031 1.546875 -4.25 1.171875 -4.65625 C 0.796875 -5.0625 0.609375 -5.59375 0.609375 -6.25 C 0.609375 -6.726562 0.726562 -7.148438 0.96875 -7.515625 C 1.207031 -7.878906 1.554688 -8.160156 2.015625 -8.359375 C 2.484375 -8.566406 3.039062 -8.671875 3.6875 -8.671875 C 4.34375 -8.671875 4.90625 -8.582031 5.375 -8.40625 C 5.84375 -8.238281 6.238281 -7.976562 6.5625 -7.625 L 5.734375 -6.46875 L 5.578125 -6.46875 C 5.335938 -6.726562 5.0625 -6.921875 4.75 -7.046875 C 4.4375 -7.171875 4.082031 -7.234375 3.6875 -7.234375 C 3.21875 -7.234375 2.863281 -7.148438 2.625 -6.984375 C 2.382812 -6.816406 2.265625 -6.59375 2.265625 -6.3125 C 2.265625 -6.039062 2.347656 -5.820312 2.515625 -5.65625 C 2.679688 -5.5 2.972656 -5.378906 3.390625 -5.296875 L 4.515625 -5.0625 C 5.347656 -4.882812 5.953125 -4.582031 6.328125 -4.15625 C 6.703125 -3.738281 6.890625 -3.191406 6.890625 -2.515625 C 6.890625 -1.984375 6.773438 -1.519531 6.546875 -1.125 C 6.316406 -0.726562 5.96875 -0.421875 5.5 -0.203125 C 5.03125 0.015625 4.460938 0.125 3.796875 0.125 Z M 3.796875 0.125 "/></g></g><g transform="translate(151.714222, 579.714219)"><g><path d="M 0.9375 0 L 0.9375 -9.046875 L 2.546875 -9.046875 L 2.546875 -5.609375 L 2.671875 -5.59375 C 2.890625 -5.90625 3.15625 -6.144531 3.46875 -6.3125 C 3.78125 -6.488281 4.15625 -6.578125 4.59375 -6.578125 C 6.019531 -6.578125 6.734375 -5.769531 6.734375 -4.15625 L 6.734375 0 L 5.109375 0 L 5.109375 -3.953125 C 5.109375 -4.390625 5.019531 -4.707031 4.84375 -4.90625 C 4.664062 -5.101562 4.394531 -5.203125 4.03125 -5.203125 C 3.570312 -5.203125 3.207031 -5.050781 2.9375 -4.75 C 2.675781 -4.445312 2.546875 -3.976562 2.546875 -3.34375 L 2.546875 0 Z M 0.9375 0 "/></g></g><g transform="translate(159.271615, 579.714219)"><g><path d="M 2.515625 0.125 C 2.097656 0.125 1.738281 0.0507812 1.4375 -0.09375 C 1.132812 -0.25 0.898438 -0.472656 0.734375 -0.765625 C 0.566406 -1.066406 0.484375 -1.425781 0.484375 -1.84375 C 0.484375 -2.21875 0.566406 -2.535156 0.734375 -2.796875 C 0.898438 -3.054688 1.15625 -3.269531 1.5 -3.4375 C 1.84375 -3.601562 2.289062 -3.734375 2.84375 -3.828125 C 3.226562 -3.890625 3.519531 -3.957031 3.71875 -4.03125 C 3.925781 -4.101562 4.0625 -4.1875 4.125 -4.28125 C 4.195312 -4.375 4.234375 -4.492188 4.234375 -4.640625 C 4.234375 -4.835938 4.160156 -4.988281 4.015625 -5.09375 C 3.867188 -5.207031 3.628906 -5.265625 3.296875 -5.265625 C 2.941406 -5.265625 2.601562 -5.1875 2.28125 -5.03125 C 1.957031 -4.875 1.675781 -4.664062 1.4375 -4.40625 L 1.3125 -4.40625 L 0.640625 -5.421875 C 0.960938 -5.785156 1.359375 -6.066406 1.828125 -6.265625 C 2.304688 -6.472656 2.820312 -6.578125 3.375 -6.578125 C 4.226562 -6.578125 4.847656 -6.394531 5.234375 -6.03125 C 5.617188 -5.664062 5.8125 -5.148438 5.8125 -4.484375 L 5.8125 -1.6875 C 5.8125 -1.394531 5.9375 -1.25 6.1875 -1.25 C 6.289062 -1.25 6.390625 -1.269531 6.484375 -1.3125 L 6.5625 -1.28125 L 6.671875 -0.15625 C 6.585938 -0.09375 6.460938 -0.0390625 6.296875 0 C 6.140625 0.03125 5.96875 0.046875 5.78125 0.046875 C 5.394531 0.046875 5.09375 -0.0234375 4.875 -0.171875 C 4.65625 -0.316406 4.5 -0.550781 4.40625 -0.875 L 4.28125 -0.890625 C 3.96875 -0.210938 3.378906 0.125 2.515625 0.125 Z M 3.03125 -1.09375 C 3.40625 -1.09375 3.703125 -1.21875 3.921875 -1.46875 C 4.148438 -1.71875 4.265625 -2.066406 4.265625 -2.515625 L 4.265625 -3.171875 L 4.15625 -3.1875 C 4.0625 -3.113281 3.929688 -3.050781 3.765625 -3 C 3.609375 -2.945312 3.382812 -2.894531 3.09375 -2.84375 C 2.738281 -2.78125 2.484375 -2.675781 2.328125 -2.53125 C 2.171875 -2.394531 2.09375 -2.195312 2.09375 -1.9375 C 2.09375 -1.65625 2.175781 -1.441406 2.34375 -1.296875 C 2.507812 -1.160156 2.738281 -1.09375 3.03125 -1.09375 Z M 3.03125 -1.09375 "/></g></g><g transform="translate(166.074439, 579.714219)"><g><path d="M 0.9375 0 L 0.9375 -6.453125 L 2.5 -6.453125 L 2.5 -5.5 L 2.625 -5.46875 C 2.78125 -5.832031 2.984375 -6.097656 3.234375 -6.265625 C 3.492188 -6.429688 3.804688 -6.515625 4.171875 -6.515625 C 4.535156 -6.515625 4.8125 -6.453125 5 -6.328125 L 4.734375 -4.921875 L 4.609375 -4.90625 C 4.503906 -4.945312 4.398438 -4.976562 4.296875 -5 C 4.203125 -5.019531 4.082031 -5.03125 3.9375 -5.03125 C 3.488281 -5.03125 3.144531 -4.867188 2.90625 -4.546875 C 2.664062 -4.234375 2.546875 -3.722656 2.546875 -3.015625 L 2.546875 0 Z M 0.9375 0 "/></g></g></g><g fill="#ffffff" fill-opacity="1"><g transform="translate(170.964518, 579.714219)"><g><path d="M 6.375 -2.859375 L 2.234375 -2.859375 C 2.273438 -2.296875 2.429688 -1.882812 2.703125 -1.625 C 2.984375 -1.375 3.359375 -1.25 3.828125 -1.25 C 4.203125 -1.25 4.503906 -1.316406 4.734375 -1.453125 C 4.960938 -1.597656 5.144531 -1.8125 5.28125 -2.09375 L 5.40625 -2.09375 L 6.484375 -1.40625 C 6.273438 -0.945312 5.957031 -0.578125 5.53125 -0.296875 C 5.101562 -0.015625 4.535156 0.125 3.828125 0.125 C 3.160156 0.125 2.582031 0 2.09375 -0.25 C 1.613281 -0.507812 1.238281 -0.890625 0.96875 -1.390625 C 0.707031 -1.890625 0.578125 -2.5 0.578125 -3.21875 C 0.578125 -3.957031 0.710938 -4.578125 0.984375 -5.078125 C 1.265625 -5.578125 1.640625 -5.953125 2.109375 -6.203125 C 2.585938 -6.453125 3.117188 -6.578125 3.703125 -6.578125 C 4.617188 -6.578125 5.316406 -6.332031 5.796875 -5.84375 C 6.285156 -5.363281 6.53125 -4.65625 6.53125 -3.71875 C 6.53125 -3.382812 6.519531 -3.125 6.5 -2.9375 Z M 4.984375 -3.90625 C 4.972656 -4.394531 4.859375 -4.75 4.640625 -4.96875 C 4.429688 -5.195312 4.117188 -5.3125 3.703125 -5.3125 C 2.890625 -5.3125 2.410156 -4.84375 2.265625 -3.90625 Z M 4.984375 -3.90625 "/></g></g></g><g clip-path="url(#4cc9c67e82)"><path fill="#ffffff" d="M 247.996094 584.742188 C 241.183594 584.742188 235.636719 590.285156 235.636719 597.101562 C 235.636719 603.914062 241.183594 609.457031 247.996094 609.457031 C 254.8125 609.457031 260.355469 603.914062 260.355469 597.101562 C 260.355469 590.285156 254.8125 584.742188 247.996094 584.742188 Z M 252.941406 598.644531 L 249.542969 598.644531 L 249.542969 602.042969 C 249.542969 602.894531 248.851562 603.589844 247.996094 603.589844 C 247.144531 603.589844 246.453125 602.894531 246.453125 602.042969 L 246.453125 598.644531 L 243.054688 598.644531 C 242.199219 598.644531 241.507812 597.953125 241.507812 597.101562 C 241.507812 596.246094 242.199219 595.554688 243.054688 595.554688 L 246.453125 595.554688 L 246.453125 592.15625 C 246.453125 591.304688 247.144531 590.613281 247.996094 590.613281 C 248.851562 590.613281 249.542969 591.304688 249.542969 592.15625 L 249.542969 595.554688 L 252.941406 595.554688 C 253.792969 595.554688 254.484375 596.246094 254.484375 597.101562 C 254.484375 597.953125 253.792969 598.644531 252.941406 598.644531 Z M 252.941406 598.644531 " fill-opacity="1" fill-rule="nonzero"/></g><g clip-path="url(#302bcf5bb9)"><g clip-path="url(#5b0843b323)"><g transform="matrix(1, 0, 0, 1, 5, 214)"><g clip-path="url(#06b34d5b01)"><g clip-path="url(#46697be25b)"><g clip-path="url(#8fb14b686b)"><path fill="#ffffff" d="M 0.0078125 0.753906 L 125.566406 0.753906 L 125.566406 126.3125 L 0.0078125 126.3125 Z M 0.0078125 0.753906 " fill-opacity="1" fill-rule="nonzero"/></g></g></g></g></g></g><g clip-path="url(#c8099281e9)"><g clip-path="url(#50db26ae9f)"><g transform="matrix(1, 0, 0, 1, 12, 222)"><g clip-path="url(#39ef2084ff)"><g clip-path="url(#c6ae5dbecd)"><g clip-path="url(#cffb057276)"><path fill="#000000" d="M 0.75 0.667969 L 110.824219 0.667969 L 110.824219 110.738281 L 0.75 110.738281 Z M 0.75 0.667969 " fill-opacity="1" fill-rule="nonzero"/></g></g></g></g></g></g><g clip-path="url(#98dbacc964)"><g clip-path="url(#ee83a78161)"><g transform="matrix(1, 0, 0, 1, 134, 296)"><g clip-path="url(#d54a00706b)"><g clip-path="url(#0608da20ce)"><g clip-path="url(#8cba33b44f)"><path fill="#000000" d="M 0.296875 0.257812 L 29.664062 0.257812 L 29.664062 29.625 L 0.296875 29.625 Z M 0.296875 0.257812 " fill-opacity="1" fill-rule="nonzero"/></g></g></g></g></g></g><g clip-path="url(#f027bde123)"><g clip-path="url(#0e863b5fd2)"><g transform="matrix(1, 0, 0, 1, 191, 296)"><g clip-path="url(#09f2905793)"><g clip-path="url(#82c7d27a28)"><g clip-path="url(#10debb6731)"><path fill="#000000" d="M 0.398438 0.257812 L 29.765625 0.257812 L 29.765625 29.625 L 0.398438 29.625 Z M 0.398438 0.257812 " fill-opacity="1" fill-rule="nonzero"/></g></g></g></g></g></g><g clip-path="url(#be3e920e37)"><g clip-path="url(#8dc4e7807a)"><g transform="matrix(1, 0, 0, 1, 245, 296)"><g clip-path="url(#d2d87de3b2)"><g clip-path="url(#44662d87c9)"><g clip-path="url(#25c69878b3)"><path fill="#000000" d="M 0.476562 0.257812 L 29.84375 0.257812 L 29.84375 29.625 L 0.476562 29.625 Z M 0.476562 0.257812 " fill-opacity="1" fill-rule="nonzero"/></g></g></g></g></g></g><g clip-path="url(#f583c02e0e)"><path fill="#ffffff" d="M 156.171875 317.824219 L 156.175781 317.824219 Z M 143.339844 303.578125 C 143.175781 303.578125 143.023438 303.652344 142.855469 303.796875 C 142.839844 303.816406 142.601562 304.042969 142.445312 304.191406 L 142.308594 304.316406 C 141.515625 305.058594 141.160156 306.390625 141.394531 307.714844 C 141.46875 308.140625 141.59375 308.582031 141.757812 309.027344 C 142.597656 311.273438 144.183594 313.230469 145.371094 314.472656 C 146.550781 315.722656 148.417969 317.414062 150.613281 318.371094 C 151.050781 318.558594 151.484375 318.707031 151.910156 318.804688 C 153.214844 319.113281 154.566406 318.824219 155.347656 318.074219 L 155.476562 317.949219 C 155.628906 317.808594 155.863281 317.585938 155.898438 317.550781 C 156.382812 317.050781 156.140625 316.636719 155.167969 315.644531 L 154.921875 315.394531 C 154.304688 314.753906 153.269531 313.679688 152.390625 313.78125 C 152.152344 313.8125 151.90625 313.984375 151.640625 314.167969 C 151.378906 314.351562 151.109375 314.539062 150.785156 314.640625 C 149.914062 314.917969 149.035156 314.738281 148.300781 314.132812 C 147.863281 313.773438 147.417969 313.347656 147.011719 312.910156 C 146.601562 312.488281 146.203125 312.023438 145.867188 311.566406 C 145.304688 310.800781 145.171875 309.910156 145.492188 309.058594 C 145.613281 308.738281 145.8125 308.480469 146.011719 308.226562 C 146.207031 307.976562 146.394531 307.734375 146.433594 307.5 C 146.585938 306.628906 145.570312 305.539062 144.964844 304.886719 L 144.726562 304.628906 C 144.082031 303.925781 143.691406 303.578125 143.339844 303.578125 Z M 152.964844 319.703125 C 152.527344 319.703125 152.105469 319.648438 151.730469 319.558594 C 151.265625 319.453125 150.785156 319.289062 150.304688 319.082031 C 147.984375 318.074219 146.035156 316.308594 144.808594 315.007812 C 143.574219 313.710938 141.914062 311.667969 141.03125 309.296875 C 140.851562 308.808594 140.714844 308.320312 140.632812 307.847656 C 140.40625 306.597656 140.589844 304.863281 141.78125 303.75 L 141.910156 303.628906 C 142.074219 303.46875 142.332031 303.226562 142.34375 303.21875 C 143.53125 302.171875 144.59375 303.335938 145.296875 304.105469 L 145.53125 304.355469 C 146.234375 305.113281 147.417969 306.378906 147.199219 307.632812 C 147.125 308.058594 146.859375 308.402344 146.621094 308.707031 C 146.453125 308.921875 146.296875 309.121094 146.21875 309.332031 C 145.988281 309.9375 146.082031 310.550781 146.492188 311.105469 C 146.808594 311.535156 147.183594 311.972656 147.574219 312.378906 C 147.960938 312.796875 148.382812 313.195312 148.792969 313.535156 C 149.324219 313.972656 149.933594 314.097656 150.550781 313.902344 C 150.761719 313.835938 150.972656 313.6875 151.195312 313.53125 C 151.511719 313.3125 151.867188 313.0625 152.300781 313.011719 C 153.566406 312.863281 154.761719 314.109375 155.480469 314.855469 L 155.71875 315.101562 C 156.449219 315.84375 157.554688 316.96875 156.449219 318.097656 C 156.433594 318.113281 156.171875 318.359375 156.011719 318.515625 L 155.882812 318.632812 C 155.066406 319.417969 153.972656 319.703125 152.964844 319.703125 " fill-opacity="1" fill-rule="nonzero"/></g><g clip-path="url(#c003dc6779)"><path fill="#ffffff" d="M 199.355469 316.488281 C 199.109375 316.488281 198.871094 316.417969 198.667969 316.285156 L 203.53125 311.300781 L 205.097656 312.894531 C 205.355469 313.160156 205.699219 313.304688 206.066406 313.304688 C 206.4375 313.304688 206.78125 313.160156 207.039062 312.898438 L 208.609375 311.300781 L 213.480469 316.285156 C 213.277344 316.417969 213.042969 316.488281 212.792969 316.488281 Z M 198.285156 315.894531 C 198.160156 315.695312 198.09375 315.464844 198.09375 315.226562 L 198.09375 306.636719 C 198.09375 306.398438 198.160156 306.164062 198.285156 305.96875 L 203.148438 310.910156 Z M 199.355469 305.375 L 212.792969 305.375 C 213.039062 305.375 213.277344 305.445312 213.480469 305.578125 L 208.414062 310.71875 L 206.648438 312.511719 C 206.492188 312.667969 206.289062 312.757812 206.066406 312.757812 C 205.847656 312.757812 205.640625 312.667969 205.488281 312.511719 L 203.726562 310.71875 L 198.671875 305.578125 C 198.871094 305.445312 199.109375 305.375 199.355469 305.375 Z M 208.992188 310.910156 L 213.863281 305.964844 C 213.988281 306.164062 214.058594 306.398438 214.058594 306.636719 L 214.058594 315.226562 C 214.058594 315.464844 213.988281 315.695312 213.863281 315.894531 Z M 214.078125 305.363281 C 213.734375 305.019531 213.28125 304.828125 212.792969 304.828125 L 199.355469 304.828125 C 198.871094 304.828125 198.414062 305.019531 198.070312 305.363281 C 197.734375 305.703125 197.546875 306.15625 197.546875 306.636719 L 197.546875 315.226562 C 197.546875 315.707031 197.730469 316.160156 198.070312 316.5 C 198.070312 316.5 198.070312 316.5 198.074219 316.5 C 198.074219 316.5 198.074219 316.503906 198.074219 316.503906 C 198.414062 316.847656 198.871094 317.035156 199.355469 317.035156 L 212.792969 317.035156 C 213.277344 317.035156 213.734375 316.847656 214.078125 316.503906 C 214.078125 316.5 214.078125 316.5 214.078125 316.5 C 214.417969 316.160156 214.605469 315.707031 214.605469 315.226562 L 214.605469 306.636719 C 214.605469 306.15625 214.417969 305.703125 214.078125 305.363281 " fill-opacity="1" fill-rule="nonzero"/></g><g clip-path="url(#68391f3a94)"><path fill="#ffffff" d="M 266.292969 304.71875 C 264.65625 303.078125 262.476562 302.175781 260.15625 302.175781 C 257.835938 302.175781 255.65625 303.078125 254.019531 304.71875 C 252.378906 306.359375 251.476562 308.539062 251.476562 310.855469 C 251.476562 313.175781 252.378906 315.355469 254.019531 316.996094 C 255.65625 318.636719 257.835938 319.539062 260.15625 319.539062 C 262.476562 319.539062 264.65625 318.636719 266.292969 316.996094 C 267.933594 315.355469 268.835938 313.175781 268.835938 310.855469 C 268.835938 308.539062 267.933594 306.359375 266.292969 304.71875 Z M 252.4375 310.855469 C 252.4375 309.890625 252.613281 308.964844 252.941406 308.113281 L 256.0625 308.113281 C 255.921875 308.984375 255.851562 309.910156 255.851562 310.855469 C 255.851562 311.773438 255.917969 312.667969 256.050781 313.515625 L 252.90625 313.515625 C 252.601562 312.6875 252.4375 311.789062 252.4375 310.855469 Z M 256.808594 310.855469 C 256.808594 309.902344 256.886719 308.976562 257.035156 308.113281 L 259.675781 308.113281 L 259.675781 313.515625 L 257.019531 313.515625 C 256.882812 312.675781 256.808594 311.777344 256.808594 310.855469 Z M 262.425781 305.261719 C 262.691406 305.824219 262.90625 306.460938 263.078125 307.152344 L 260.636719 307.152344 L 260.636719 303.226562 C 261.289062 303.464844 261.921875 304.175781 262.425781 305.261719 Z M 259.675781 303.226562 L 259.675781 307.152344 L 257.234375 307.152344 C 257.40625 306.460938 257.621094 305.824219 257.886719 305.261719 C 258.390625 304.175781 259.023438 303.464844 259.675781 303.226562 Z M 259.675781 314.476562 L 259.675781 318.488281 C 259.023438 318.25 258.390625 317.539062 257.886719 316.453125 C 257.613281 315.863281 257.386719 315.199219 257.214844 314.476562 Z M 260.636719 318.488281 L 260.636719 314.476562 L 263.097656 314.476562 C 262.925781 315.199219 262.699219 315.863281 262.425781 316.453125 C 261.921875 317.539062 261.289062 318.25 260.636719 318.488281 Z M 260.636719 313.515625 L 260.636719 308.113281 L 263.277344 308.113281 C 263.425781 308.976562 263.503906 309.902344 263.503906 310.855469 C 263.503906 311.777344 263.429688 312.675781 263.292969 313.515625 Z M 264.25 308.113281 L 267.371094 308.113281 C 267.699219 308.964844 267.875 309.890625 267.875 310.855469 C 267.875 311.789062 267.710938 312.6875 267.40625 313.515625 L 264.261719 313.515625 C 264.394531 312.667969 264.460938 311.773438 264.460938 310.855469 C 264.460938 309.910156 264.390625 308.984375 264.25 308.113281 Z M 266.925781 307.152344 L 264.0625 307.152344 C 263.871094 306.3125 263.613281 305.539062 263.296875 304.855469 C 263.050781 304.328125 262.773438 303.871094 262.476562 303.492188 C 264.386719 304.097656 265.976562 305.421875 266.925781 307.152344 Z M 257.835938 303.492188 C 257.539062 303.871094 257.261719 304.328125 257.015625 304.855469 C 256.699219 305.539062 256.441406 306.3125 256.25 307.152344 L 253.386719 307.152344 C 254.335938 305.421875 255.925781 304.097656 257.835938 303.492188 Z M 253.339844 314.476562 L 256.230469 314.476562 C 256.421875 315.347656 256.6875 316.152344 257.015625 316.859375 C 257.261719 317.386719 257.539062 317.84375 257.835938 318.222656 C 255.894531 317.609375 254.28125 316.246094 253.339844 314.476562 Z M 262.476562 318.222656 C 262.773438 317.84375 263.050781 317.386719 263.296875 316.859375 C 263.625 316.152344 263.890625 315.347656 264.082031 314.476562 L 266.972656 314.476562 C 266.03125 316.246094 264.417969 317.609375 262.476562 318.222656 Z M 262.476562 318.222656 " fill-opacity="1" fill-rule="nonzero"/></g></svg>