<svg xmlns="http://www.w3.org/2000/svg" xmlns:xlink="http://www.w3.org/1999/xlink" width="390" zoomAndPan="magnify" viewBox="0 0 292.5 632.999981" height="844" preserveAspectRatio="xMidYMid meet" version="1.0"><defs><g/><clipPath id="91d8504012"><path d="M 0 0.539062 L 292 0.539062 L 292 632.457031 L 0 632.457031 Z M 0 0.539062 " clip-rule="nonzero"/></clipPath><clipPath id="b2b36fdafd"><path d="M 0 0.539062 L 292 0.539062 L 292 294.703125 L 0 294.703125 Z M 0 0.539062 " clip-rule="nonzero"/></clipPath><clipPath id="33ffe91727"><path d="M -78.851562 0.539062 L 328.738281 0.539062 C 336.183594 0.539062 342.214844 6.574219 342.214844 14.015625 L 342.214844 281.226562 C 342.214844 288.667969 336.183594 294.703125 328.738281 294.703125 L -78.851562 294.703125 C -86.296875 294.703125 -92.328125 288.667969 -92.328125 281.226562 L -92.328125 14.015625 C -92.328125 6.574219 -86.296875 0.539062 -78.851562 0.539062 Z M -78.851562 0.539062 " clip-rule="nonzero"/></clipPath><clipPath id="d2fc54f17d"><path d="M 0 0.539062 L 292 0.539062 L 292 294.703125 L 0 294.703125 Z M 0 0.539062 " clip-rule="nonzero"/></clipPath><clipPath id="4c38adf301"><path d="M -78.851562 0.539062 L 328.738281 0.539062 C 336.183594 0.539062 342.214844 6.574219 342.214844 14.015625 L 342.214844 281.226562 C 342.214844 288.667969 336.183594 294.703125 328.738281 294.703125 L -78.851562 294.703125 C -86.296875 294.703125 -92.328125 288.667969 -92.328125 281.226562 L -92.328125 14.015625 C -92.328125 6.574219 -86.296875 0.539062 -78.851562 0.539062 Z M -78.851562 0.539062 " clip-rule="nonzero"/></clipPath><clipPath id="3ac499251b"><rect x="0" width="292" y="0" height="295"/></clipPath><clipPath id="41e598e9a2"><path d="M 67.789062 277.703125 L 292 277.703125 L 292 327.898438 L 67.789062 327.898438 Z M 67.789062 277.703125 " clip-rule="nonzero"/></clipPath><clipPath id="38d1692a62"><path d="M 0.789062 0.703125 L 225 0.703125 L 225 50.898438 L 0.789062 50.898438 Z M 0.789062 0.703125 " clip-rule="nonzero"/></clipPath><clipPath id="086e00661b"><rect x="0" width="225" y="0" height="51"/></clipPath><clipPath id="9e56725fba"><path d="M 185.589844 283.933594 L 223.328125 283.933594 L 223.328125 321.667969 L 185.589844 321.667969 Z M 185.589844 283.933594 " clip-rule="nonzero"/></clipPath><clipPath id="c4c2c18755"><path d="M 204.457031 283.933594 C 194.039062 283.933594 185.589844 292.378906 185.589844 302.800781 C 185.589844 313.222656 194.039062 321.667969 204.457031 321.667969 C 214.878906 321.667969 223.328125 313.222656 223.328125 302.800781 C 223.328125 292.378906 214.878906 283.933594 204.457031 283.933594 Z M 204.457031 283.933594 " clip-rule="nonzero"/></clipPath><clipPath id="a800951637"><path d="M 0.589844 0.933594 L 38.328125 0.933594 L 38.328125 38.667969 L 0.589844 38.667969 Z M 0.589844 0.933594 " clip-rule="nonzero"/></clipPath><clipPath id="4c6a9e3eb9"><path d="M 19.457031 0.933594 C 9.039062 0.933594 0.589844 9.378906 0.589844 19.800781 C 0.589844 30.222656 9.039062 38.667969 19.457031 38.667969 C 29.878906 38.667969 38.328125 30.222656 38.328125 19.800781 C 38.328125 9.378906 29.878906 0.933594 19.457031 0.933594 Z M 19.457031 0.933594 " clip-rule="nonzero"/></clipPath><clipPath id="09e3cd923c"><rect x="0" width="39" y="0" height="39"/></clipPath><clipPath id="20b170b876"><path d="M 121.734375 568.183594 L 139.707031 568.183594 L 139.707031 583.160156 L 121.734375 583.160156 Z M 121.734375 568.183594 " clip-rule="nonzero"/></clipPath><clipPath id="71d4d90440"><path d="M 5.007812 214.753906 L 130.566406 214.753906 L 130.566406 340.3125 L 5.007812 340.3125 Z M 5.007812 214.753906 " clip-rule="nonzero"/></clipPath><clipPath id="2383b92b19"><path d="M 67.789062 214.753906 C 33.113281 214.753906 5.007812 242.863281 5.007812 277.535156 C 5.007812 312.207031 33.113281 340.3125 67.789062 340.3125 C 102.460938 340.3125 130.566406 312.207031 130.566406 277.535156 C 130.566406 242.863281 102.460938 214.753906 67.789062 214.753906 Z M 67.789062 214.753906 " clip-rule="nonzero"/></clipPath><clipPath id="6a0458c478"><path d="M 0.0078125 0.753906 L 125.566406 0.753906 L 125.566406 126.3125 L 0.0078125 126.3125 Z M 0.0078125 0.753906 " clip-rule="nonzero"/></clipPath><clipPath id="089c88b155"><path d="M 62.789062 0.753906 C 28.113281 0.753906 0.0078125 28.863281 0.0078125 63.535156 C 0.0078125 98.207031 28.113281 126.3125 62.789062 126.3125 C 97.460938 126.3125 125.566406 98.207031 125.566406 63.535156 C 125.566406 28.863281 97.460938 0.753906 62.789062 0.753906 Z M 62.789062 0.753906 " clip-rule="nonzero"/></clipPath><clipPath id="9b97048bac"><rect x="0" width="126" y="0" height="127"/></clipPath><clipPath id="229ea635a4"><path d="M 133.539062 283.933594 L 171.273438 283.933594 L 171.273438 321.667969 L 133.539062 321.667969 Z M 133.539062 283.933594 " clip-rule="nonzero"/></clipPath><clipPath id="105ecfa300"><path d="M 152.40625 283.933594 C 141.984375 283.933594 133.539062 292.378906 133.539062 302.800781 C 133.539062 313.222656 141.984375 321.667969 152.40625 321.667969 C 162.828125 321.667969 171.273438 313.222656 171.273438 302.800781 C 171.273438 292.378906 162.828125 283.933594 152.40625 283.933594 Z M 152.40625 283.933594 " clip-rule="nonzero"/></clipPath><clipPath id="0b76df1303"><path d="M 0.539062 0.933594 L 38.273438 0.933594 L 38.273438 38.667969 L 0.539062 38.667969 Z M 0.539062 0.933594 " clip-rule="nonzero"/></clipPath><clipPath id="33415f0c91"><path d="M 19.40625 0.933594 C 8.984375 0.933594 0.539062 9.378906 0.539062 19.800781 C 0.539062 30.222656 8.984375 38.667969 19.40625 38.667969 C 29.828125 38.667969 38.273438 30.222656 38.273438 19.800781 C 38.273438 9.378906 29.828125 0.933594 19.40625 0.933594 Z M 19.40625 0.933594 " clip-rule="nonzero"/></clipPath><clipPath id="9c2927323c"><rect x="0" width="39" y="0" height="39"/></clipPath><clipPath id="d30d32c9ca"><path d="M 141.371094 292 L 163 292 L 163 314 L 141.371094 314 Z M 141.371094 292 " clip-rule="nonzero"/></clipPath><clipPath id="e0346a13e0"><path d="M 193.492188 294.945312 L 215.203125 294.945312 L 215.203125 310.667969 L 193.492188 310.667969 Z M 193.492188 294.945312 " clip-rule="nonzero"/></clipPath><clipPath id="c9540d820e"><path d="M 237.554688 283.933594 L 275.289062 283.933594 L 275.289062 321.667969 L 237.554688 321.667969 Z M 237.554688 283.933594 " clip-rule="nonzero"/></clipPath><clipPath id="5218e31f20"><path d="M 256.421875 283.933594 C 246 283.933594 237.554688 292.378906 237.554688 302.800781 C 237.554688 313.222656 246 321.667969 256.421875 321.667969 C 266.84375 321.667969 275.289062 313.222656 275.289062 302.800781 C 275.289062 292.378906 266.84375 283.933594 256.421875 283.933594 Z M 256.421875 283.933594 " clip-rule="nonzero"/></clipPath><clipPath id="bce03be20f"><path d="M 0.554688 0.933594 L 38.289062 0.933594 L 38.289062 38.667969 L 0.554688 38.667969 Z M 0.554688 0.933594 " clip-rule="nonzero"/></clipPath><clipPath id="6ad8a153f9"><path d="M 19.421875 0.933594 C 9 0.933594 0.554688 9.378906 0.554688 19.800781 C 0.554688 30.222656 9 38.667969 19.421875 38.667969 C 29.84375 38.667969 38.289062 30.222656 38.289062 19.800781 C 38.289062 9.378906 29.84375 0.933594 19.421875 0.933594 Z M 19.421875 0.933594 " clip-rule="nonzero"/></clipPath><clipPath id="5749fb7612"><rect x="0" width="39" y="0" height="39"/></clipPath><clipPath id="7ff7769ca2"><path d="M 248 293.996094 L 265.972656 293.996094 L 265.972656 311.964844 L 248 311.964844 Z M 248 293.996094 " clip-rule="nonzero"/></clipPath></defs><g clip-path="url(#91d8504012)"><path fill="#ffffff" d="M 0 0.539062 L 292 0.539062 L 292 632.460938 L 0 632.460938 Z M 0 0.539062 " fill-opacity="1" fill-rule="nonzero"/><path fill="#ffffff" d="M 0 0.539062 L 292 0.539062 L 292 632.460938 L 0 632.460938 Z M 0 0.539062 " fill-opacity="1" fill-rule="nonzero"/></g><g clip-path="url(#b2b36fdafd)"><g clip-path="url(#33ffe91727)"><g transform="matrix(1, 0, 0, 1, 0, -0.000000000000015987)"><g clip-path="url(#3ac499251b)"><g clip-path="url(#d2fc54f17d)"><g clip-path="url(#4c38adf301)"><path fill="#000000" d="M -92.328125 0.539062 L 342.019531 0.539062 L 342.019531 294.703125 L -92.328125 294.703125 Z M -92.328125 0.539062 " fill-opacity="1" fill-rule="nonzero"/></g></g></g></g></g></g><g clip-path="url(#41e598e9a2)"><g transform="matrix(1, 0, 0, 1, 67, 277)"><g clip-path="url(#086e00661b)"><g clip-path="url(#38d1692a62)"><path fill="#1f8f3a" d="M 0.789062 0.703125 L 243.738281 0.703125 L 243.738281 50.898438 L 0.789062 50.898438 Z M 0.789062 0.703125 " fill-opacity="1" fill-rule="nonzero"/></g></g></g></g><g clip-path="url(#9e56725fba)"><g clip-path="url(#c4c2c18755)"><g transform="matrix(1, 0, 0, 1, 185, 283)"><g clip-path="url(#09e3cd923c)"><g clip-path="url(#a800951637)"><g clip-path="url(#4c6a9e3eb9)"><path fill="#000000" d="M 0.589844 0.933594 L 38.328125 0.933594 L 38.328125 38.667969 L 0.589844 38.667969 Z M 0.589844 0.933594 " fill-opacity="1" fill-rule="nonzero"/></g></g></g></g></g></g><g clip-path="url(#20b170b876)"><path fill="#ffffff" d="M 139.355469 568.589844 C 139.355469 568.585938 139.355469 568.585938 139.355469 568.585938 C 139.359375 568.578125 139.363281 568.570312 139.367188 568.5625 C 139.367188 568.558594 139.371094 568.554688 139.371094 568.554688 C 139.375 568.542969 139.378906 568.535156 139.378906 568.527344 C 139.378906 568.523438 139.378906 568.523438 139.382812 568.523438 C 139.382812 568.511719 139.386719 568.503906 139.386719 568.492188 C 139.386719 568.488281 139.386719 568.488281 139.386719 568.484375 C 139.390625 568.476562 139.390625 568.46875 139.390625 568.460938 C 139.390625 568.457031 139.390625 568.453125 139.390625 568.453125 C 139.390625 568.429688 139.386719 568.410156 139.382812 568.386719 C 139.382812 568.386719 139.378906 568.382812 139.378906 568.378906 C 139.378906 568.371094 139.375 568.363281 139.371094 568.355469 C 139.371094 568.355469 139.371094 568.351562 139.367188 568.347656 C 139.363281 568.339844 139.359375 568.332031 139.355469 568.324219 C 139.355469 568.320312 139.355469 568.320312 139.355469 568.320312 C 139.355469 568.320312 139.355469 568.320312 139.355469 568.316406 C 139.347656 568.308594 139.34375 568.300781 139.335938 568.292969 C 139.335938 568.289062 139.332031 568.289062 139.332031 568.285156 C 139.324219 568.277344 139.320312 568.273438 139.3125 568.265625 C 139.3125 568.265625 139.308594 568.261719 139.308594 568.261719 C 139.300781 568.253906 139.292969 568.246094 139.285156 568.242188 C 139.285156 568.242188 139.285156 568.242188 139.285156 568.238281 C 139.277344 568.234375 139.265625 568.226562 139.257812 568.222656 C 139.253906 568.21875 139.253906 568.21875 139.25 568.21875 C 139.246094 568.214844 139.238281 568.210938 139.230469 568.207031 C 139.226562 568.207031 139.222656 568.203125 139.222656 568.203125 C 139.210938 568.199219 139.203125 568.199219 139.195312 568.195312 C 139.195312 568.195312 139.191406 568.195312 139.191406 568.195312 C 139.179688 568.191406 139.171875 568.1875 139.160156 568.1875 C 139.15625 568.1875 139.15625 568.1875 139.152344 568.1875 C 139.144531 568.1875 139.132812 568.183594 139.125 568.183594 C 139.125 568.183594 139.121094 568.183594 139.121094 568.183594 L 122.027344 568.183594 C 121.914062 568.183594 121.8125 568.257812 121.773438 568.363281 C 121.734375 568.472656 121.769531 568.589844 121.855469 568.664062 L 128.933594 574.386719 L 130.242188 583.269531 C 130.257812 583.382812 130.34375 583.472656 130.457031 583.492188 C 130.472656 583.496094 130.492188 583.5 130.507812 583.5 C 130.601562 583.5 130.691406 583.449219 130.738281 583.363281 L 139.351562 568.59375 Z M 138.125 568.722656 L 129.210938 573.917969 L 122.785156 568.722656 Z M 130.660156 582.429688 L 129.476562 574.382812 L 138.375 569.199219 Z M 130.660156 582.429688 " fill-opacity="1" fill-rule="nonzero"/></g><g fill="#ffffff" fill-opacity="1"><g transform="translate(144.367406, 579.714219)"><g><path d="M 3.796875 0.125 C 3.203125 0.125 2.671875 0.0507812 2.203125 -0.09375 C 1.742188 -0.238281 1.359375 -0.429688 1.046875 -0.671875 C 0.742188 -0.910156 0.507812 -1.171875 0.34375 -1.453125 L 1.28125 -2.59375 L 1.421875 -2.59375 C 1.679688 -2.207031 2.007812 -1.898438 2.40625 -1.671875 C 2.800781 -1.453125 3.265625 -1.34375 3.796875 -1.34375 C 4.242188 -1.34375 4.582031 -1.4375 4.8125 -1.625 C 5.039062 -1.8125 5.15625 -2.078125 5.15625 -2.421875 C 5.15625 -2.617188 5.117188 -2.785156 5.046875 -2.921875 C 4.972656 -3.054688 4.847656 -3.171875 4.671875 -3.265625 C 4.503906 -3.367188 4.273438 -3.457031 3.984375 -3.53125 L 2.890625 -3.78125 C 2.117188 -3.957031 1.546875 -4.25 1.171875 -4.65625 C 0.796875 -5.0625 0.609375 -5.59375 0.609375 -6.25 C 0.609375 -6.726562 0.726562 -7.148438 0.96875 -7.515625 C 1.207031 -7.878906 1.554688 -8.160156 2.015625 -8.359375 C 2.484375 -8.566406 3.039062 -8.671875 3.6875 -8.671875 C 4.34375 -8.671875 4.90625 -8.582031 5.375 -8.40625 C 5.84375 -8.238281 6.238281 -7.976562 6.5625 -7.625 L 5.734375 -6.46875 L 5.578125 -6.46875 C 5.335938 -6.726562 5.0625 -6.921875 4.75 -7.046875 C 4.4375 -7.171875 4.082031 -7.234375 3.6875 -7.234375 C 3.21875 -7.234375 2.863281 -7.148438 2.625 -6.984375 C 2.382812 -6.816406 2.265625 -6.59375 2.265625 -6.3125 C 2.265625 -6.039062 2.347656 -5.820312 2.515625 -5.65625 C 2.679688 -5.5 2.972656 -5.378906 3.390625 -5.296875 L 4.515625 -5.0625 C 5.347656 -4.882812 5.953125 -4.582031 6.328125 -4.15625 C 6.703125 -3.738281 6.890625 -3.191406 6.890625 -2.515625 C 6.890625 -1.984375 6.773438 -1.519531 6.546875 -1.125 C 6.316406 -0.726562 5.96875 -0.421875 5.5 -0.203125 C 5.03125 0.015625 4.460938 0.125 3.796875 0.125 Z M 3.796875 0.125 "/></g></g><g transform="translate(151.714222, 579.714219)"><g><path d="M 0.9375 0 L 0.9375 -9.046875 L 2.546875 -9.046875 L 2.546875 -5.609375 L 2.671875 -5.59375 C 2.890625 -5.90625 3.15625 -6.144531 3.46875 -6.3125 C 3.78125 -6.488281 4.15625 -6.578125 4.59375 -6.578125 C 6.019531 -6.578125 6.734375 -5.769531 6.734375 -4.15625 L 6.734375 0 L 5.109375 0 L 5.109375 -3.953125 C 5.109375 -4.390625 5.019531 -4.707031 4.84375 -4.90625 C 4.664062 -5.101562 4.394531 -5.203125 4.03125 -5.203125 C 3.570312 -5.203125 3.207031 -5.050781 2.9375 -4.75 C 2.675781 -4.445312 2.546875 -3.976562 2.546875 -3.34375 L 2.546875 0 Z M 0.9375 0 "/></g></g><g transform="translate(159.271615, 579.714219)"><g><path d="M 2.515625 0.125 C 2.097656 0.125 1.738281 0.0507812 1.4375 -0.09375 C 1.132812 -0.25 0.898438 -0.472656 0.734375 -0.765625 C 0.566406 -1.066406 0.484375 -1.425781 0.484375 -1.84375 C 0.484375 -2.21875 0.566406 -2.535156 0.734375 -2.796875 C 0.898438 -3.054688 1.15625 -3.269531 1.5 -3.4375 C 1.84375 -3.601562 2.289062 -3.734375 2.84375 -3.828125 C 3.226562 -3.890625 3.519531 -3.957031 3.71875 -4.03125 C 3.925781 -4.101562 4.0625 -4.1875 4.125 -4.28125 C 4.195312 -4.375 4.234375 -4.492188 4.234375 -4.640625 C 4.234375 -4.835938 4.160156 -4.988281 4.015625 -5.09375 C 3.867188 -5.207031 3.628906 -5.265625 3.296875 -5.265625 C 2.941406 -5.265625 2.601562 -5.1875 2.28125 -5.03125 C 1.957031 -4.875 1.675781 -4.664062 1.4375 -4.40625 L 1.3125 -4.40625 L 0.640625 -5.421875 C 0.960938 -5.785156 1.359375 -6.066406 1.828125 -6.265625 C 2.304688 -6.472656 2.820312 -6.578125 3.375 -6.578125 C 4.226562 -6.578125 4.847656 -6.394531 5.234375 -6.03125 C 5.617188 -5.664062 5.8125 -5.148438 5.8125 -4.484375 L 5.8125 -1.6875 C 5.8125 -1.394531 5.9375 -1.25 6.1875 -1.25 C 6.289062 -1.25 6.390625 -1.269531 6.484375 -1.3125 L 6.5625 -1.28125 L 6.671875 -0.15625 C 6.585938 -0.09375 6.460938 -0.0390625 6.296875 0 C 6.140625 0.03125 5.96875 0.046875 5.78125 0.046875 C 5.394531 0.046875 5.09375 -0.0234375 4.875 -0.171875 C 4.65625 -0.316406 4.5 -0.550781 4.40625 -0.875 L 4.28125 -0.890625 C 3.96875 -0.210938 3.378906 0.125 2.515625 0.125 Z M 3.03125 -1.09375 C 3.40625 -1.09375 3.703125 -1.21875 3.921875 -1.46875 C 4.148438 -1.71875 4.265625 -2.066406 4.265625 -2.515625 L 4.265625 -3.171875 L 4.15625 -3.1875 C 4.0625 -3.113281 3.929688 -3.050781 3.765625 -3 C 3.609375 -2.945312 3.382812 -2.894531 3.09375 -2.84375 C 2.738281 -2.78125 2.484375 -2.675781 2.328125 -2.53125 C 2.171875 -2.394531 2.09375 -2.195312 2.09375 -1.9375 C 2.09375 -1.65625 2.175781 -1.441406 2.34375 -1.296875 C 2.507812 -1.160156 2.738281 -1.09375 3.03125 -1.09375 Z M 3.03125 -1.09375 "/></g></g><g transform="translate(166.074439, 579.714219)"><g><path d="M 0.9375 0 L 0.9375 -6.453125 L 2.5 -6.453125 L 2.5 -5.5 L 2.625 -5.46875 C 2.78125 -5.832031 2.984375 -6.097656 3.234375 -6.265625 C 3.492188 -6.429688 3.804688 -6.515625 4.171875 -6.515625 C 4.535156 -6.515625 4.8125 -6.453125 5 -6.328125 L 4.734375 -4.921875 L 4.609375 -4.90625 C 4.503906 -4.945312 4.398438 -4.976562 4.296875 -5 C 4.203125 -5.019531 4.082031 -5.03125 3.9375 -5.03125 C 3.488281 -5.03125 3.144531 -4.867188 2.90625 -4.546875 C 2.664062 -4.234375 2.546875 -3.722656 2.546875 -3.015625 L 2.546875 0 Z M 0.9375 0 "/></g></g></g><g fill="#ffffff" fill-opacity="1"><g transform="translate(170.964518, 579.714219)"><g><path d="M 6.375 -2.859375 L 2.234375 -2.859375 C 2.273438 -2.296875 2.429688 -1.882812 2.703125 -1.625 C 2.984375 -1.375 3.359375 -1.25 3.828125 -1.25 C 4.203125 -1.25 4.503906 -1.316406 4.734375 -1.453125 C 4.960938 -1.597656 5.144531 -1.8125 5.28125 -2.09375 L 5.40625 -2.09375 L 6.484375 -1.40625 C 6.273438 -0.945312 5.957031 -0.578125 5.53125 -0.296875 C 5.101562 -0.015625 4.535156 0.125 3.828125 0.125 C 3.160156 0.125 2.582031 0 2.09375 -0.25 C 1.613281 -0.507812 1.238281 -0.890625 0.96875 -1.390625 C 0.707031 -1.890625 0.578125 -2.5 0.578125 -3.21875 C 0.578125 -3.957031 0.710938 -4.578125 0.984375 -5.078125 C 1.265625 -5.578125 1.640625 -5.953125 2.109375 -6.203125 C 2.585938 -6.453125 3.117188 -6.578125 3.703125 -6.578125 C 4.617188 -6.578125 5.316406 -6.332031 5.796875 -5.84375 C 6.285156 -5.363281 6.53125 -4.65625 6.53125 -3.71875 C 6.53125 -3.382812 6.519531 -3.125 6.5 -2.9375 Z M 4.984375 -3.90625 C 4.972656 -4.394531 4.859375 -4.75 4.640625 -4.96875 C 4.429688 -5.195312 4.117188 -5.3125 3.703125 -5.3125 C 2.890625 -5.3125 2.410156 -4.84375 2.265625 -3.90625 Z M 4.984375 -3.90625 "/></g></g></g><g clip-path="url(#71d4d90440)"><g clip-path="url(#2383b92b19)"><g transform="matrix(1, 0, 0, 1, 5, 214)"><g clip-path="url(#9b97048bac)"><g clip-path="url(#6a0458c478)"><g clip-path="url(#089c88b155)"><path fill="#ffffff" d="M 0.0078125 0.753906 L 125.566406 0.753906 L 125.566406 126.3125 L 0.0078125 126.3125 Z M 0.0078125 0.753906 " fill-opacity="1" fill-rule="nonzero"/></g></g></g></g></g></g><g clip-path="url(#229ea635a4)"><g clip-path="url(#105ecfa300)"><g transform="matrix(1, 0, 0, 1, 133, 283)"><g clip-path="url(#9c2927323c)"><g clip-path="url(#0b76df1303)"><g clip-path="url(#33415f0c91)"><path fill="#000000" d="M 0.539062 0.933594 L 38.273438 0.933594 L 38.273438 38.667969 L 0.539062 38.667969 Z M 0.539062 0.933594 " fill-opacity="1" fill-rule="nonzero"/></g></g></g></g></g></g><g clip-path="url(#d30d32c9ca)"><path fill="#ffffff" d="M 161.644531 311.648438 L 161.648438 311.648438 Z M 145.152344 293.34375 C 144.945312 293.34375 144.746094 293.4375 144.53125 293.625 C 144.507812 293.644531 144.203125 293.9375 144.003906 294.128906 L 143.828125 294.292969 C 142.8125 295.242188 142.351562 296.953125 142.652344 298.652344 C 142.75 299.203125 142.910156 299.773438 143.121094 300.34375 C 144.199219 303.230469 146.238281 305.742188 147.761719 307.339844 C 149.277344 308.949219 151.675781 311.121094 154.503906 312.351562 C 155.0625 312.59375 155.621094 312.78125 156.164062 312.910156 C 157.84375 313.300781 159.578125 312.933594 160.582031 311.96875 L 160.75 311.808594 C 160.945312 311.625 161.246094 311.339844 161.292969 311.296875 C 161.917969 310.65625 161.605469 310.121094 160.351562 308.84375 L 160.039062 308.523438 C 159.242188 307.699219 157.910156 306.320312 156.785156 306.453125 C 156.480469 306.492188 156.160156 306.714844 155.820312 306.949219 C 155.484375 307.183594 155.136719 307.425781 154.722656 307.558594 C 153.605469 307.914062 152.46875 307.679688 151.527344 306.902344 C 150.964844 306.441406 150.390625 305.898438 149.871094 305.335938 C 149.34375 304.792969 148.835938 304.191406 148.402344 303.605469 C 147.675781 302.625 147.503906 301.480469 147.917969 300.382812 C 148.074219 299.972656 148.332031 299.636719 148.585938 299.316406 C 148.839844 298.992188 149.078125 298.683594 149.132812 298.378906 C 149.324219 297.257812 148.019531 295.859375 147.238281 295.019531 L 146.933594 294.691406 C 146.109375 293.785156 145.605469 293.34375 145.152344 293.34375 Z M 157.519531 314.058594 C 156.960938 314.058594 156.417969 313.992188 155.9375 313.878906 C 155.335938 313.738281 154.71875 313.53125 154.105469 313.265625 C 151.125 311.96875 148.617188 309.699219 147.039062 308.027344 C 145.453125 306.363281 143.324219 303.738281 142.1875 300.691406 C 141.953125 300.0625 141.78125 299.4375 141.671875 298.828125 C 141.386719 297.21875 141.621094 294.992188 143.148438 293.5625 L 143.316406 293.402344 C 143.53125 293.203125 143.859375 292.886719 143.875 292.875 C 145.402344 291.535156 146.765625 293.03125 147.671875 294.019531 L 147.96875 294.339844 C 148.875 295.3125 150.390625 296.941406 150.113281 298.550781 C 150.019531 299.097656 149.675781 299.539062 149.371094 299.929688 C 149.15625 300.207031 148.953125 300.464844 148.851562 300.734375 C 148.558594 301.515625 148.679688 302.300781 149.203125 303.011719 C 149.609375 303.5625 150.089844 304.128906 150.59375 304.648438 C 151.09375 305.1875 151.632812 305.699219 152.164062 306.136719 C 152.84375 306.695312 153.625 306.859375 154.421875 306.609375 C 154.691406 306.523438 154.964844 306.332031 155.25 306.132812 C 155.65625 305.851562 156.113281 305.53125 156.667969 305.464844 C 158.292969 305.273438 159.832031 306.875 160.753906 307.832031 L 161.0625 308.144531 C 162 309.101562 163.421875 310.546875 162 311.996094 C 161.980469 312.019531 161.644531 312.335938 161.433594 312.535156 L 161.273438 312.6875 C 160.222656 313.695312 158.816406 314.058594 157.519531 314.058594 " fill-opacity="1" fill-rule="nonzero"/></g><g clip-path="url(#e0346a13e0)"><path fill="#ffffff" d="M 195.816406 309.933594 C 195.5 309.933594 195.195312 309.84375 194.933594 309.671875 L 201.183594 303.269531 L 203.195312 305.316406 C 203.527344 305.65625 203.972656 305.839844 204.445312 305.839844 C 204.917969 305.839844 205.359375 305.65625 205.691406 305.320312 L 207.710938 303.269531 L 213.972656 309.671875 C 213.714844 309.84375 213.410156 309.933594 213.089844 309.933594 Z M 194.441406 309.171875 C 194.28125 308.914062 194.195312 308.621094 194.195312 308.3125 L 194.195312 297.273438 C 194.195312 296.964844 194.28125 296.667969 194.441406 296.410156 L 200.691406 302.765625 Z M 195.816406 295.652344 L 213.089844 295.652344 C 213.40625 295.652344 213.710938 295.742188 213.96875 295.910156 L 207.460938 302.519531 L 205.191406 304.824219 C 204.992188 305.027344 204.726562 305.136719 204.445312 305.136719 C 204.160156 305.136719 203.898438 305.027344 203.699219 304.824219 L 201.433594 302.519531 L 194.9375 295.910156 C 195.195312 295.742188 195.5 295.652344 195.816406 295.652344 Z M 208.203125 302.765625 L 214.464844 296.410156 C 214.625 296.667969 214.714844 296.964844 214.714844 297.273438 L 214.714844 308.3125 C 214.714844 308.621094 214.628906 308.917969 214.464844 309.171875 Z M 214.742188 295.636719 C 214.738281 295.636719 214.738281 295.636719 214.738281 295.636719 C 214.738281 295.632812 214.738281 295.632812 214.738281 295.632812 C 214.300781 295.191406 213.714844 294.949219 213.089844 294.949219 L 195.816406 294.949219 C 195.191406 294.949219 194.605469 295.191406 194.167969 295.636719 C 193.730469 296.074219 193.492188 296.65625 193.492188 297.273438 L 193.492188 308.3125 C 193.492188 308.929688 193.730469 309.511719 194.164062 309.949219 C 194.164062 309.949219 194.167969 309.949219 194.167969 309.953125 C 194.609375 310.394531 195.195312 310.636719 195.816406 310.636719 L 213.089844 310.636719 C 213.714844 310.636719 214.300781 310.394531 214.738281 309.953125 C 214.742188 309.953125 214.742188 309.949219 214.742188 309.949219 C 215.175781 309.511719 215.417969 308.929688 215.417969 308.3125 L 215.417969 297.273438 C 215.417969 296.65625 215.175781 296.074219 214.742188 295.636719 " fill-opacity="1" fill-rule="nonzero"/></g><g clip-path="url(#c9540d820e)"><g clip-path="url(#5218e31f20)"><g transform="matrix(1, 0, 0, 1, 237, 283)"><g clip-path="url(#5749fb7612)"><g clip-path="url(#bce03be20f)"><g clip-path="url(#6ad8a153f9)"><path fill="#000000" d="M 0.554688 0.933594 L 38.289062 0.933594 L 38.289062 38.667969 L 0.554688 38.667969 Z M 0.554688 0.933594 " fill-opacity="1" fill-rule="nonzero"/></g></g></g></g></g></g><g clip-path="url(#7ff7769ca2)"><path fill="#ffffff" d="M 263.03125 296.574219 C 261.367188 294.910156 259.15625 293.996094 256.804688 293.996094 C 254.453125 293.996094 252.242188 294.910156 250.582031 296.574219 C 248.917969 298.238281 248 300.449219 248 302.800781 C 248 305.152344 248.917969 307.359375 250.582031 309.023438 C 252.242188 310.6875 254.453125 311.601562 256.804688 311.601562 C 259.15625 311.601562 261.367188 310.6875 263.03125 309.023438 C 264.691406 307.359375 265.609375 305.152344 265.609375 302.800781 C 265.609375 300.449219 264.691406 298.238281 263.03125 296.574219 Z M 248.976562 302.800781 C 248.976562 301.820312 249.15625 300.878906 249.488281 300.015625 L 252.652344 300.015625 C 252.511719 300.898438 252.4375 301.839844 252.4375 302.800781 C 252.4375 303.726562 252.507812 304.636719 252.640625 305.496094 L 249.453125 305.496094 C 249.144531 304.652344 248.976562 303.746094 248.976562 302.800781 Z M 253.410156 302.800781 C 253.410156 301.832031 253.492188 300.894531 253.640625 300.015625 L 256.316406 300.015625 L 256.316406 305.496094 L 253.625 305.496094 C 253.484375 304.640625 253.410156 303.734375 253.410156 302.800781 Z M 259.109375 297.125 C 259.375 297.695312 259.597656 298.34375 259.769531 299.039062 L 257.292969 299.039062 L 257.292969 295.058594 C 257.953125 295.300781 258.59375 296.023438 259.109375 297.125 Z M 256.316406 295.058594 L 256.316406 299.039062 L 253.84375 299.039062 C 254.015625 298.34375 254.234375 297.695312 254.503906 297.125 C 255.015625 296.023438 255.65625 295.300781 256.316406 295.058594 Z M 256.316406 306.46875 L 256.316406 310.539062 C 255.65625 310.296875 255.015625 309.574219 254.503906 308.472656 C 254.222656 307.878906 253.996094 307.199219 253.820312 306.46875 Z M 257.292969 310.539062 L 257.292969 306.46875 L 259.789062 306.46875 C 259.613281 307.199219 259.386719 307.878906 259.109375 308.472656 C 258.59375 309.574219 257.953125 310.296875 257.292969 310.539062 Z M 257.292969 305.496094 L 257.292969 300.015625 L 259.96875 300.015625 C 260.121094 300.894531 260.199219 301.832031 260.199219 302.800781 C 260.199219 303.734375 260.125 304.640625 259.984375 305.496094 Z M 260.957031 300.015625 L 264.121094 300.015625 C 264.453125 300.878906 264.632812 301.820312 264.632812 302.800781 C 264.632812 303.746094 264.464844 304.652344 264.15625 305.496094 L 260.96875 305.496094 C 261.101562 304.636719 261.171875 303.726562 261.171875 302.800781 C 261.171875 301.839844 261.097656 300.898438 260.957031 300.015625 Z M 263.671875 299.039062 L 260.769531 299.039062 C 260.574219 298.191406 260.3125 297.402344 259.988281 296.710938 C 259.738281 296.175781 259.460938 295.714844 259.15625 295.332031 C 261.09375 295.941406 262.707031 297.289062 263.671875 299.039062 Z M 254.453125 295.332031 C 254.148438 295.714844 253.871094 296.175781 253.621094 296.710938 C 253.296875 297.402344 253.035156 298.191406 252.84375 299.039062 L 249.9375 299.039062 C 250.902344 297.289062 252.515625 295.941406 254.453125 295.332031 Z M 249.890625 306.46875 L 252.820312 306.46875 C 253.019531 307.351562 253.285156 308.171875 253.621094 308.886719 C 253.871094 309.421875 254.148438 309.882812 254.453125 310.269531 C 252.484375 309.644531 250.847656 308.265625 249.890625 306.46875 Z M 259.15625 310.269531 C 259.460938 309.882812 259.738281 309.421875 259.988281 308.886719 C 260.324219 308.171875 260.59375 307.351562 260.789062 306.46875 L 263.71875 306.46875 C 262.761719 308.265625 261.128906 309.644531 259.15625 310.269531 Z M 259.15625 310.269531 " fill-opacity="1" fill-rule="nonzero"/></g></svg>
